<?xml version="1.0" standalone="no"?>
<!DOCTYPE svg PUBLIC "-//W3C//DTD SVG 1.1//EN" "http://www.w3.org/Graphics/SVG/1.1/DTD/svg11.dtd" >
<svg xmlns="http://www.w3.org/2000/svg">
<metadata>Generated by IcoMoon</metadata>
<defs>
<font id="ic-bookstore" horiz-adv-x="1024">
<font-face units-per-em="1024" ascent="960" descent="-64" />
<missing-glyph horiz-adv-x="1024" />
<glyph unicode="&#x20;" horiz-adv-x="512" d="" />
<glyph unicode="&#xe900;" glyph-name="Add_Column" d="M426.667 746.667c0 70.692 57.306 128 128 128h85.333c70.694 0 128-57.308 128-128v-597.333c0-70.694-57.306-128-128-128h-42.667c-23.565 0-42.667 19.102-42.667 42.667s19.102 42.667 42.667 42.667h42.667c23.565 0 42.667 19.102 42.667 42.667v597.333c0 23.564-19.102 42.667-42.667 42.667h-85.333c-23.565 0-42.667-19.103-42.667-42.667v-256c0-23.565-19.102-42.667-42.667-42.667s-42.667 19.102-42.667 42.667v256zM341.333 405.333c23.564 0 42.667-19.102 42.667-42.667v-85.333h85.333c23.565 0 42.667-19.102 42.667-42.667s-19.102-42.667-42.667-42.667h-85.333v-85.333c0-23.565-19.103-42.667-42.667-42.667s-42.667 19.102-42.667 42.667v85.333h-85.333c-23.564 0-42.667 19.102-42.667 42.667s19.103 42.667 42.667 42.667h85.333v85.333c0 23.565 19.103 42.667 42.667 42.667z" />
<glyph unicode="&#xe901;" glyph-name="Add_Minus_Square" d="M305.565 832h412.89c22.49 0.001 41.89 0.001 57.869-1.304 16.866-1.379 33.638-4.422 49.783-12.647 24.060-12.259 43.665-31.82 55.949-55.929 8.226-16.144 11.268-32.922 12.646-49.789 1.306-15.982 1.306-35.384 1.306-57.876v-412.889c0-22.494 0-41.894-1.306-57.877-1.378-16.87-4.42-33.647-12.646-49.792-12.267-24.081-31.859-43.682-55.949-55.953-16.132-8.222-32.892-11.264-49.737-12.642-15.962-1.301-35.328-1.301-57.775-1.301h-413.172c-22.447 0-41.824 0-57.789 1.301-16.849 1.378-33.62 4.42-49.756 12.642-24.109 12.284-43.669 31.889-55.929 55.949-8.225 16.145-11.268 32.917-12.647 49.783-1.306 15.979-1.305 35.379-1.304 57.869v412.89c-0.001 22.493-0.001 41.9 1.304 57.885 1.378 16.869 4.42 33.653 12.647 49.8 12.272 24.085 31.844 43.657 55.929 55.929 16.147 8.227 32.931 11.269 49.8 12.647 15.985 1.306 35.393 1.305 57.885 1.304zM254.626 745.646c-11.599-0.948-15.899-2.556-18.006-3.63-8.028-4.090-14.546-10.608-18.636-18.636-1.074-2.107-2.682-6.407-3.63-18.006-0.988-12.094-1.021-27.983-1.021-52.582v-409.6c0-24.602 0.033-40.478 1.021-52.565 0.947-11.584 2.554-15.881 3.63-17.993 4.103-8.051 10.632-14.579 18.636-18.658 2.1-1.071 6.389-2.675 17.966-3.622 12.072-0.986 27.93-1.020 52.482-1.020h409.885c24.55 0 40.401 0.034 52.463 1.020 11.558 0.943 15.846 2.547 17.95 3.622 8.026 4.087 14.566 10.628 18.658 18.662 1.075 2.108 2.684 6.409 3.631 17.997 0.986 12.092 1.020 27.972 1.020 52.574v409.601c0 24.599-0.034 40.483-1.020 52.572-0.947 11.591-2.556 15.889-3.631 17.998-4.079 8.004-10.607 14.534-18.658 18.636-2.112 1.076-6.409 2.683-17.993 3.63-12.087 0.988-27.964 1.021-52.565 1.021h-409.6c-24.599 0-40.488-0.033-52.582-1.021zM298.667 448c0 23.565 19.103 42.667 42.667 42.667h341.333c23.565 0 42.667-19.102 42.667-42.667s-19.102-42.667-42.667-42.667h-341.333c-23.564 0-42.667 19.102-42.667 42.667z" />
<glyph unicode="&#xe902;" glyph-name="Add_Plus" d="M512 746.667c23.565 0 42.667-19.103 42.667-42.667v-213.333h213.333c23.565 0 42.667-19.102 42.667-42.667s-19.102-42.667-42.667-42.667h-213.333v-213.333c0-23.565-19.102-42.667-42.667-42.667s-42.667 19.102-42.667 42.667v213.333h-213.333c-23.564 0-42.667 19.102-42.667 42.667s19.103 42.667 42.667 42.667h213.333v213.333c0 23.564 19.102 42.667 42.667 42.667z" />
<glyph unicode="&#xe903;" glyph-name="Add_Plus_Circle" d="M512 789.333c-188.513 0-341.333-152.82-341.333-341.333s152.82-341.333 341.333-341.333c188.514 0 341.333 152.819 341.333 341.333s-152.819 341.333-341.333 341.333zM85.333 448c0 235.642 191.025 426.667 426.667 426.667 235.639 0 426.667-191.025 426.667-426.667 0-235.639-191.027-426.667-426.667-426.667-235.642 0-426.667 191.027-426.667 426.667zM512 661.333c23.565 0 42.667-19.103 42.667-42.667v-128h128c23.565 0 42.667-19.102 42.667-42.667s-19.102-42.667-42.667-42.667h-128v-128c0-23.565-19.102-42.667-42.667-42.667s-42.667 19.102-42.667 42.667v128h-128c-23.564 0-42.667 19.102-42.667 42.667s19.103 42.667 42.667 42.667h128v128c0 23.564 19.102 42.667 42.667 42.667z" />
<glyph unicode="&#xe904;" glyph-name="Add_Plus_Square" d="M305.565 832h412.89c22.49 0.001 41.89 0.001 57.869-1.304 16.866-1.379 33.638-4.422 49.783-12.647 24.060-12.259 43.665-31.82 55.949-55.929 8.226-16.144 11.268-32.922 12.646-49.789 1.306-15.982 1.306-35.384 1.306-57.876v-412.889c0-22.494 0-41.894-1.306-57.877-1.378-16.87-4.42-33.647-12.646-49.792-12.267-24.081-31.859-43.682-55.949-55.953-16.132-8.222-32.892-11.264-49.737-12.642-15.962-1.301-35.328-1.301-57.775-1.301h-413.172c-22.447 0-41.824 0-57.789 1.301-16.849 1.378-33.62 4.42-49.756 12.642-24.109 12.284-43.669 31.889-55.929 55.949-8.225 16.145-11.268 32.917-12.647 49.783-1.306 15.979-1.305 35.379-1.304 57.869v412.89c-0.001 22.493-0.001 41.9 1.304 57.885 1.378 16.869 4.42 33.653 12.647 49.8 12.272 24.085 31.844 43.657 55.929 55.929 16.147 8.227 32.931 11.269 49.8 12.647 15.985 1.306 35.393 1.305 57.885 1.304zM254.626 745.646c-11.599-0.948-15.899-2.556-18.006-3.63-8.028-4.090-14.546-10.608-18.636-18.636-1.074-2.107-2.682-6.407-3.63-18.006-0.988-12.094-1.021-27.983-1.021-52.582v-409.6c0-24.602 0.033-40.478 1.021-52.565 0.947-11.584 2.554-15.881 3.63-17.993 4.103-8.051 10.632-14.579 18.636-18.658 2.1-1.071 6.389-2.675 17.966-3.622 12.072-0.986 27.93-1.020 52.482-1.020h409.885c24.55 0 40.401 0.034 52.463 1.020 11.558 0.943 15.846 2.547 17.95 3.622 8.026 4.087 14.566 10.628 18.658 18.662 1.075 2.108 2.684 6.409 3.631 17.997 0.986 12.092 1.020 27.972 1.020 52.574v409.601c0 24.599-0.034 40.483-1.020 52.572-0.947 11.591-2.556 15.889-3.631 17.998-4.079 8.004-10.607 14.534-18.658 18.636-2.112 1.076-6.409 2.683-17.993 3.63-12.087 0.988-27.964 1.021-52.565 1.021h-409.6c-24.599 0-40.488-0.033-52.582-1.021zM512 661.333c23.565 0 42.667-19.103 42.667-42.667v-128h128c23.565 0 42.667-19.102 42.667-42.667s-19.102-42.667-42.667-42.667h-128v-128c0-23.565-19.102-42.667-42.667-42.667s-42.667 19.102-42.667 42.667v128h-128c-23.564 0-42.667 19.102-42.667 42.667s19.103 42.667 42.667 42.667h128v128c0 23.564 19.102 42.667 42.667 42.667z" />
<glyph unicode="&#xe905;" glyph-name="Add_Row" d="M298.667 789.333c23.564 0 42.667-19.103 42.667-42.667v-85.333h85.333c23.565 0 42.667-19.103 42.667-42.667s-19.102-42.667-42.667-42.667h-85.333v-85.333c0-23.565-19.103-42.667-42.667-42.667s-42.667 19.102-42.667 42.667v85.333h-85.333c-23.564 0-42.667 19.103-42.667 42.667s19.103 42.667 42.667 42.667h85.333v85.333c0 23.564 19.103 42.667 42.667 42.667zM512 490.667c0 23.565 19.102 42.667 42.667 42.667h256c70.694 0 128-57.306 128-128v-85.333c0-70.694-57.306-128-128-128h-597.333c-70.692 0-128 57.306-128 128v42.667c0 23.565 19.103 42.667 42.667 42.667s42.667-19.102 42.667-42.667v-42.667c0-23.565 19.103-42.667 42.667-42.667h597.333c23.565 0 42.667 19.102 42.667 42.667v85.333c0 23.565-19.102 42.667-42.667 42.667h-256c-23.565 0-42.667 19.102-42.667 42.667z" />
<glyph unicode="&#xe906;" glyph-name="Add_To_Queue" d="M433.566 874.667h327.556c22.49 0.001 41.89 0.001 57.869-1.304 16.866-1.379 33.638-4.422 49.783-12.647 24.060-12.259 43.665-31.82 55.949-55.929 8.226-16.144 11.268-32.922 12.646-49.79 1.31-15.982 1.306-35.384 1.306-57.875v-327.56c0-22.49 0.004-41.894-1.301-57.873-1.382-16.87-4.425-33.647-12.651-49.792-12.267-24.081-31.859-43.682-55.949-55.953-16.132-8.222-32.892-11.264-49.737-12.642-15.957-1.301-35.328-1.301-57.775-1.301h-327.838c-22.447 0-41.824 0-57.789 1.301-16.849 1.378-33.62 4.42-49.756 12.642-24.109 12.284-43.669 31.889-55.928 55.949-8.225 16.145-11.269 32.917-12.647 49.783-1.306 15.979-1.305 35.379-1.305 57.869v327.558c0 22.493-0.001 41.9 1.304 57.885 1.378 16.869 4.42 33.653 12.647 49.8 12.272 24.085 31.844 43.657 55.929 55.929 16.147 8.227 32.931 11.269 49.8 12.647 15.985 1.306 35.393 1.305 57.886 1.304zM382.626 788.312c-11.599-0.948-15.898-2.556-18.006-3.63-8.028-4.090-14.546-10.608-18.636-18.636-1.073-2.107-2.682-6.407-3.63-18.006-0.988-12.094-1.021-27.983-1.021-52.582v-324.267c0-24.602 0.033-40.478 1.021-52.565 0.947-11.584 2.554-15.881 3.63-17.993 4.103-8.051 10.632-14.579 18.636-18.658 2.1-1.071 6.39-2.675 17.966-3.622 12.072-0.986 27.93-1.020 52.482-1.020h324.553c24.55 0 40.401 0.034 52.463 1.020 11.558 0.943 15.846 2.547 17.95 3.622 8.026 4.087 14.566 10.628 18.658 18.662 1.075 2.108 2.684 6.409 3.631 17.997 0.986 12.092 1.020 27.972 1.020 52.574v324.268c0 24.599-0.034 40.483-1.020 52.572-0.947 11.591-2.556 15.889-3.631 17.998-4.079 8.004-10.607 14.534-18.658 18.636-2.112 1.076-6.409 2.683-17.993 3.63-12.083 0.988-27.964 1.021-52.565 1.021h-324.267c-24.599 0-40.488-0.033-52.582-1.021zM597.333 704c23.565 0 42.667-19.103 42.667-42.667v-85.333h85.333c23.565 0 42.667-19.103 42.667-42.667s-19.102-42.667-42.667-42.667h-85.333v-85.333c0-23.565-19.102-42.667-42.667-42.667s-42.667 19.102-42.667 42.667v85.333h-85.333c-23.565 0-42.667 19.102-42.667 42.667s19.102 42.667 42.667 42.667h85.333v85.333c0 23.564 19.102 42.667 42.667 42.667zM128 618.667c23.564 0 42.667-19.103 42.667-42.667v-443.733c0-12.651 0.033-19.571 0.439-24.542 0.016-0.205 0.033-0.393 0.049-0.572 0.171-0.017 0.351-0.030 0.541-0.047 4.966-0.405 11.875-0.439 24.503-0.439h443.803c23.565 0 42.667-19.102 42.667-42.667s-19.102-42.667-42.667-42.667h-445.163c-10.746 0-21.221-0.004-30.094 0.721-9.743 0.798-21.248 2.675-32.826 8.576zM131.921 30.63c-16.094 8.201-29.125 21.286-37.287 37.303-5.9 11.58-7.78 23.083-8.578 32.836-0.726 8.883-0.724 19.366-0.723 30.135v445.094c0 23.564 19.102 42.667 42.667 42.667z" />
<glyph unicode="&#xe907;" glyph-name="Airplay" d="M262.898 789.333h498.224c22.49 0.001 41.886 0.001 57.86-1.305 16.866-1.379 33.63-4.423 49.771-12.646 24.038-12.248 43.678-31.798 55.97-55.929 8.222-16.136 11.264-32.907 12.642-49.756 1.301-15.965 1.301-35.342 1.301-57.789v-242.484c0-22.447 0-41.818-1.301-57.775-1.378-16.845-4.42-33.604-12.642-49.737-12.262-24.068-31.855-43.691-55.957-55.97-16.132-8.222-32.896-11.264-49.745-12.642-15.962-1.301-35.332-1.301-57.779-1.301h-3.785c-23.565 0-42.667 19.102-42.667 42.667s19.102 42.667 42.667 42.667h2.142c24.555 0 40.405 0.034 52.471 1.020 11.567 0.947 15.855 2.551 17.958 3.622 8.009 4.083 14.566 10.637 18.662 18.679 1.075 2.103 2.679 6.391 3.622 17.95 0.986 12.062 1.020 27.908 1.020 52.463v239.197c0 24.553-0.034 40.41-1.020 52.482-0.947 11.576-2.551 15.866-3.622 17.966-4.066 7.982-10.603 14.522-18.679 18.636-2.112 1.077-6.409 2.683-17.984 3.63-12.079 0.988-27.951 1.021-52.553 1.021h-494.933c-24.599 0-40.488-0.033-52.582-1.021-11.599-0.948-15.899-2.556-18.006-3.63-8.028-4.090-14.546-10.608-18.636-18.636-1.074-2.107-2.682-6.407-3.63-18.006-0.988-12.094-1.021-27.983-1.021-52.582v-238.933c0-24.602 0.033-40.474 1.021-52.553 0.946-11.575 2.552-15.872 3.63-17.984 4.114-8.077 10.654-14.613 18.636-18.679 2.102-1.071 6.389-2.675 17.96-3.622 12.070-0.986 27.926-1.020 52.488-1.020h2.247c23.564 0 42.667-19.102 42.667-42.667s-19.102-42.667-42.667-42.667h-3.891c-22.454 0-41.832 0-57.795 1.301-16.85 1.378-33.615 4.42-49.749 12.642-24.131 12.292-43.68 31.932-55.929 55.97-8.224 16.141-11.268 32.905-12.646 49.771-1.306 15.974-1.306 35.371-1.305 57.86v242.224c-0.001 22.493-0.001 41.9 1.304 57.885 1.378 16.869 4.42 33.653 12.647 49.8 12.272 24.085 31.844 43.657 55.929 55.929 16.147 8.227 32.931 11.269 49.8 12.647 15.985 1.306 35.393 1.305 57.885 1.304zM512 362.667c12.962 0 25.22-5.892 33.318-16.013l170.667-213.333c10.244-12.809 12.241-30.353 5.137-45.137s-22.054-24.183-38.455-24.183h-341.333c-16.401 0-31.351 9.399-38.455 24.183s-5.107 32.329 5.138 45.137l170.665 213.333c8.098 10.121 20.356 16.013 33.318 16.013zM430.106 149.333h163.789l-81.894 102.366-81.894-102.366z" />
<glyph unicode="&#xe908;" glyph-name="Alarm" d="M291.424 902.091c15.147-18.051 12.792-44.963-5.259-60.11l-130.738-109.702c-18.051-15.147-44.963-12.792-60.11 5.259s-12.792 44.963 5.259 60.11l130.738 109.702c18.051 15.147 44.963 12.792 60.111-5.259zM732.732 902.091c15.147 18.051 42.061 20.406 60.113 5.259l130.735-109.702c18.052-15.147 20.407-42.059 5.261-60.11s-42.061-20.406-60.109-5.259l-130.739 109.702c-18.052 15.147-20.407 42.059-5.261 60.11zM512 746.666c-164.948 0-298.666-133.718-298.666-298.666 0-164.949 133.718-298.667 298.666-298.667 164.949 0 298.667 133.717 298.667 298.667 0 164.948-133.717 298.666-298.667 298.666zM128.001 448c0 212.076 171.923 383.999 383.999 383.999 212.079 0 384-171.923 384-383.999 0-212.079-171.921-384-384-384-212.076 0-383.999 171.921-383.999 384zM512 703.999c23.565 0 42.667-19.103 42.667-42.667v-170.666h170.667c23.565 0 42.667-19.102 42.667-42.667s-19.102-42.667-42.667-42.667h-213.333c-23.565 0-42.667 19.102-42.667 42.667v213.332c0 23.564 19.102 42.667 42.667 42.667z" />
<glyph unicode="&#xe909;" glyph-name="Archive" d="M822.097 661.234c0.064-0.003 0.132-0.006 0.192-0.009 0.047-0.060 0.102-0.124 0.158-0.192 1.284-1.577 2.987-3.847 6.302-8.323 11.217-15.148 18.138-24.54 22.592-31.624 0.363-0.576 0.687-1.105 0.977-1.589-0.563-0.055-1.178-0.109-1.856-0.161-8.337-0.637-19.985-0.667-38.805-0.667h-65.161c-0.905 0-1.809 0-2.718 0h-462.163c-0.454 0-0.906 0-1.359 0-0.906 0-1.81 0-2.711 0h-65.275c-18.82 0-30.458 0.030-38.779 0.667-0.661 0.051-1.265 0.103-1.815 0.157 0.29 0.483 0.614 1.012 0.975 1.587 4.448 7.077 11.363 16.464 22.582 31.61 3.341 4.51 5.037 6.784 6.339 8.387 0.042 0.052 0.083 0.102 0.121 0.148 0.056 0.003 0.115 0.006 0.177 0.009 2.053 0.092 4.879 0.102 10.495 0.102h599.227c5.615 0 8.444-0.010 10.505-0.102zM852.949 533.984c0.375-7.554 0.375-15.955 0.375-24.514v-225.404c0-22.443 0-41.818-1.306-57.775-1.378-16.849-4.416-33.609-12.638-49.741-12.297-24.132-31.953-43.691-55.987-55.94-16.132-8.218-32.887-11.26-49.737-12.638-15.957-1.306-35.328-1.306-57.771-1.301h-327.805c-22.447-0.004-41.824-0.004-57.789 1.301-16.849 1.378-33.62 4.416-49.756 12.638-24.096 12.279-43.663 31.868-55.929 55.94-8.226 16.145-11.269 32.922-12.647 49.792-1.306 15.983-1.305 35.388-1.304 57.877v223.514c0 0.452 0 0.905 0 1.357-0.001 8.717-0.002 17.246 0.382 24.891-1.389 0.080-2.744 0.17-4.062 0.271-11.791 0.902-27.49 3.005-41.697 11.756-27.467 16.919-43.007 47.869-40.259 79.952 1.425 16.628 9.080 30.5 15.38 40.525 6.412 10.202 15.346 22.263 25.365 35.787 0.298 0.403 0.597 0.806 0.898 1.212 0.425 0.575 0.861 1.167 1.308 1.772 4.817 6.54 10.866 14.752 18.69 21.34 10.193 8.585 22.277 14.677 35.256 17.761 9.95 2.365 20.12 2.338 28.245 2.316 0.752-0.002 1.487-0.004 2.202-0.004h599.227c0.717 0 1.451 0.002 2.202 0.004 8.124 0.022 18.308 0.049 28.258-2.316 12.983-3.085 25.067-9.179 35.255-17.761 7.859-6.618 13.897-14.805 18.795-21.449 0.414-0.559 0.819-1.108 1.216-1.643l0.926-1.254c10.005-13.506 18.931-25.555 25.34-35.748 6.298-10.020 13.969-23.902 15.394-40.539 2.752-32.135-12.864-63.063-40.286-79.954-14.217-8.756-29.935-10.855-41.724-11.756-1.306-0.1-2.645-0.189-4.019-0.268zM767.514 532.847c-0.175 0.017-0.367 0.034-0.563 0.051-4.966 0.405-11.883 0.437-24.533 0.437h-460.802c-12.651 0-19.584-0.032-24.567-0.442-0.201-0.013-0.39-0.030-0.569-0.047-0.017-0.179-0.033-0.363-0.049-0.559-0.407-4.979-0.44-11.904-0.44-24.555v-221.867c0-24.602 0.033-40.486 1.021-52.578 0.947-11.593 2.555-15.889 3.629-17.997 4.096-8.038 10.619-14.562 18.637-18.65 2.1-1.067 6.389-2.675 17.966-3.618 12.072-0.99 27.93-1.020 52.482-1.020h324.515c24.555 0 40.401 0.030 52.463 1.015 11.563 0.947 15.846 2.551 17.95 3.622 8.077 4.117 14.63 10.671 18.697 18.65 1.071 2.103 2.675 6.391 3.622 17.954 0.986 12.062 1.020 27.913 1.020 52.463v222.409c0 12.523-0.034 19.362-0.435 24.273-0.013 0.162-0.026 0.311-0.043 0.457zM383.99 362.671c0-23.565 19.103-42.667 42.667-42.667h170.668c23.565 0 42.667 19.102 42.667 42.667 0 23.561-19.102 42.667-42.667 42.667h-170.668c-23.564 0-42.667-19.106-42.667-42.667z" />
<glyph unicode="&#xe90a;" glyph-name="Arrow_Circle_Down" d="M85.333 448c0 235.642 191.025 426.667 426.667 426.667 235.639 0 426.667-191.025 426.667-426.667 0-235.639-191.027-426.667-426.667-426.667-235.642 0-426.667 191.027-426.667 426.667zM512 789.333c-188.513 0-341.333-152.82-341.333-341.333s152.82-341.333 341.333-341.333c188.514 0 341.333 152.819 341.333 341.333s-152.819 341.333-341.333 341.333zM512 661.333c23.565 0 42.667-19.103 42.667-42.667v-238.327l55.164 55.164c16.661 16.661 43.678 16.661 60.339 0s16.661-43.678 0-60.339l-128-128c-16.661-16.661-43.678-16.661-60.339 0l-128 128c-16.662 16.661-16.662 43.678 0 60.339s43.677 16.661 60.34 0l55.163-55.164v238.327c0 23.564 19.102 42.667 42.667 42.667z" />
<glyph unicode="&#xe90b;" glyph-name="Arrow_Circle_Down_Left" d="M85.333 448c0 235.642 191.025 426.667 426.667 426.667 235.639 0 426.667-191.025 426.667-426.667 0-235.639-191.027-426.667-426.667-426.667-235.642 0-426.667 191.027-426.667 426.667zM512 789.333c-188.513 0-341.333-152.82-341.333-341.333s152.82-341.333 341.333-341.333c188.514 0 341.333 152.819 341.333 341.333s-152.819 341.333-341.333 341.333zM670.17 606.17c16.661-16.663 16.661-43.677 0-60.34l-183.164-183.163h67.661c23.565 0 42.667-19.102 42.667-42.667s-19.102-42.667-42.667-42.667h-170.667c-23.564 0-42.667 19.102-42.667 42.667v170.667c0 23.565 19.103 42.667 42.667 42.667s42.667-19.102 42.667-42.667v-67.661l183.164 183.164c16.661 16.662 43.678 16.662 60.339 0z" />
<glyph unicode="&#xe90c;" glyph-name="Arrow_Circle_Down_Right" d="M85.333 448c0 235.642 191.025 426.667 426.667 426.667 235.639 0 426.667-191.025 426.667-426.667 0-235.639-191.027-426.667-426.667-426.667-235.642 0-426.667 191.027-426.667 426.667zM512 789.333c-188.513 0-341.333-152.82-341.333-341.333s152.82-341.333 341.333-341.333c188.514 0 341.333 152.819 341.333 341.333s-152.819 341.333-341.333 341.333zM353.83 606.17c16.663 16.662 43.677 16.662 60.34 0l183.163-183.164v67.661c0 23.565 19.102 42.667 42.667 42.667s42.667-19.102 42.667-42.667v-170.667c0-23.565-19.102-42.667-42.667-42.667h-170.667c-23.565 0-42.667 19.102-42.667 42.667s19.102 42.667 42.667 42.667h67.661l-183.164 183.163c-16.662 16.663-16.662 43.677 0 60.34z" />
<glyph unicode="&#xe90d;" glyph-name="Arrow_Circle_Left" d="M85.333 448c0 235.642 191.025 426.667 426.667 426.667 235.639 0 426.667-191.025 426.667-426.667 0-235.639-191.027-426.667-426.667-426.667-235.642 0-426.667 191.027-426.667 426.667zM512 789.333c-188.513 0-341.333-152.82-341.333-341.333s152.82-341.333 341.333-341.333c188.514 0 341.333 152.819 341.333 341.333s-152.819 341.333-341.333 341.333zM499.503 606.17c16.661-16.663 16.661-43.677 0-60.34l-55.164-55.163h238.327c23.565 0 42.667-19.102 42.667-42.667s-19.102-42.667-42.667-42.667h-238.327l55.164-55.164c16.661-16.661 16.661-43.678 0-60.339s-43.678-16.661-60.339 0l-128 128c-16.662 16.661-16.662 43.678 0 60.339l128 128c16.661 16.662 43.678 16.662 60.339 0z" />
<glyph unicode="&#xe90e;" glyph-name="Arrow_Circle_Right" d="M85.333 448c0 235.642 191.025 426.667 426.667 426.667 235.639 0 426.667-191.025 426.667-426.667 0-235.639-191.027-426.667-426.667-426.667-235.642 0-426.667 191.027-426.667 426.667zM512 789.333c-188.513 0-341.333-152.82-341.333-341.333s152.82-341.333 341.333-341.333c188.514 0 341.333 152.819 341.333 341.333s-152.819 341.333-341.333 341.333zM524.497 606.17c16.661 16.662 43.678 16.662 60.339 0l128-128c16.661-16.661 16.661-43.678 0-60.339l-128-128c-16.661-16.661-43.678-16.661-60.339 0s-16.661 43.678 0 60.339l55.164 55.164h-238.327c-23.564 0-42.667 19.102-42.667 42.667s19.103 42.667 42.667 42.667h238.327l-55.164 55.163c-16.661 16.663-16.661 43.677 0 60.34z" />
<glyph unicode="&#xe90f;" glyph-name="Arrow_Circle_Up" d="M85.333 448c0 235.642 191.025 426.667 426.667 426.667 235.639 0 426.667-191.025 426.667-426.667 0-235.639-191.027-426.667-426.667-426.667-235.642 0-426.667 191.027-426.667 426.667zM512 789.333c-188.513 0-341.333-152.82-341.333-341.333s152.82-341.333 341.333-341.333c188.514 0 341.333 152.819 341.333 341.333s-152.819 341.333-341.333 341.333zM353.83 520.836l128 128c16.661 16.662 43.678 16.662 60.339 0l128-128c16.661-16.661 16.661-43.678 0-60.339s-43.678-16.661-60.339 0l-55.164 55.164v-238.327c0-23.565-19.102-42.667-42.667-42.667s-42.667 19.102-42.667 42.667v238.327l-55.163-55.164c-16.663-16.661-43.677-16.661-60.34 0s-16.662 43.678 0 60.339z" />
<glyph unicode="&#xe910;" glyph-name="Arrow_Circle_Up_Left" d="M85.333 448c0 235.642 191.025 426.667 426.667 426.667 235.639 0 426.667-191.025 426.667-426.667 0-235.639-191.027-426.667-426.667-426.667-235.642 0-426.667 191.027-426.667 426.667zM512 789.333c-188.513 0-341.333-152.82-341.333-341.333s152.82-341.333 341.333-341.333c188.514 0 341.333 152.819 341.333 341.333s-152.819 341.333-341.333 341.333zM384 618.667h170.667c23.565 0 42.667-19.103 42.667-42.667s-19.102-42.667-42.667-42.667h-67.661l183.164-183.164c16.661-16.661 16.661-43.678 0-60.339s-43.678-16.661-60.339 0l-183.164 183.164v-67.661c0-23.565-19.103-42.667-42.667-42.667s-42.667 19.102-42.667 42.667v170.667c0 23.564 19.103 42.667 42.667 42.667z" />
<glyph unicode="&#xe911;" glyph-name="Arrow_Circle_Up_Right" d="M85.333 448c0 235.642 191.025 426.667 426.667 426.667 235.639 0 426.667-191.025 426.667-426.667 0-235.639-191.027-426.667-426.667-426.667-235.642 0-426.667 191.027-426.667 426.667zM512 789.333c-188.513 0-341.333-152.82-341.333-341.333s152.82-341.333 341.333-341.333c188.514 0 341.333 152.819 341.333 341.333s-152.819 341.333-341.333 341.333zM426.667 576c0 23.564 19.102 42.667 42.667 42.667h170.667c23.565 0 42.667-19.103 42.667-42.667v-170.667c0-23.565-19.102-42.667-42.667-42.667s-42.667 19.102-42.667 42.667v67.661l-183.163-183.164c-16.663-16.661-43.677-16.661-60.34 0s-16.662 43.678 0 60.339l183.164 183.164h-67.661c-23.565 0-42.667 19.103-42.667 42.667z" />
<glyph unicode="&#xe912;" glyph-name="Arrow_Down_Left_LG" d="M813.687 749.712c16.661-16.662 16.661-43.677 0-60.34l-470.223-470.227h198.692c23.565 0 42.667-19.102 42.667-42.667s-19.102-42.667-42.667-42.667h-301.699c-11.316 0-22.168 4.497-30.17 12.497s-12.497 18.854-12.497 30.17v301.709c0 23.565 19.103 42.667 42.667 42.667s42.667-19.102 42.667-42.667v-198.703l470.223 470.228c16.661 16.663 43.674 16.663 60.339 0z" />
<glyph unicode="&#xe913;" glyph-name="Arrow_Down_Left_MD" d="M755.503 691.503c16.661-16.663 16.661-43.677 0-60.34l-353.83-353.83h238.327c23.565 0 42.667-19.102 42.667-42.667s-19.102-42.667-42.667-42.667h-341.333c-23.564 0-42.667 19.102-42.667 42.667v341.333c0 23.564 19.103 42.667 42.667 42.667s42.667-19.103 42.667-42.667v-238.327l353.83 353.831c16.661 16.662 43.678 16.662 60.339 0z" />
<glyph unicode="&#xe914;" glyph-name="Arrow_Down_Left_SM" d="M712.836 648.837c16.661-16.663 16.661-43.677 0-60.34l-268.497-268.497h152.994c23.565 0 42.667-19.102 42.667-42.667s-19.102-42.667-42.667-42.667h-256c-23.564 0-42.667 19.102-42.667 42.667v256c0 23.564 19.103 42.667 42.667 42.667s42.667-19.103 42.667-42.667v-152.994l268.497 268.497c16.661 16.662 43.678 16.662 60.339 0z" />
<glyph unicode="&#xe915;" glyph-name="Arrow_Down_LG" d="M512 874.667c23.565 0 42.667-19.103 42.667-42.667v-664.994l140.497 140.497c16.661 16.661 43.678 16.661 60.339 0s16.661-43.678 0-60.339l-213.333-213.333c-16.661-16.661-43.678-16.661-60.339 0l-213.334 213.333c-16.662 16.661-16.662 43.678 0 60.339s43.677 16.661 60.34 0l140.497-140.497v664.994c0 23.564 19.102 42.667 42.667 42.667z" />
<glyph unicode="&#xe916;" glyph-name="Arrow_Down_MD" d="M512 789.333c23.565 0 42.667-19.103 42.667-42.667v-494.327l183.164 183.164c16.661 16.661 43.678 16.661 60.339 0s16.661-43.678 0-60.339l-256-256c-16.661-16.661-43.678-16.661-60.339 0l-256 256c-16.662 16.661-16.662 43.678 0 60.339s43.677 16.661 60.34 0l183.163-183.164v494.327c0 23.564 19.102 42.667 42.667 42.667z" />
<glyph unicode="&#xe917;" glyph-name="Arrow_Down_Right_LG" d="M210.288 749.69c16.662 16.663 43.677 16.663 60.34 0l470.214-470.211-0.009 198.686c0 23.565 19.098 42.667 42.662 42.667 23.565 0.004 42.671-19.098 42.671-42.662l0.017-301.7c0-23.565-19.102-42.667-42.667-42.667l-301.683-0.021c-23.565 0-42.667 19.102-42.667 42.662-0.004 23.565 19.098 42.671 42.662 42.671l198.686 0.013-470.228 470.223c-16.663 16.662-16.663 43.677 0 60.34z" />
<glyph unicode="&#xe918;" glyph-name="Arrow_Down_Right_MD" d="M268.497 691.503c16.663 16.662 43.677 16.662 60.34 0l353.83-353.831v238.327c0 23.564 19.102 42.667 42.667 42.667s42.667-19.103 42.667-42.667v-341.333c0-23.565-19.102-42.667-42.667-42.667h-341.333c-23.564 0-42.667 19.102-42.667 42.667s19.103 42.667 42.667 42.667h238.327l-353.831 353.83c-16.662 16.663-16.662 43.677 0 60.34z" />
<glyph unicode="&#xe919;" glyph-name="Arrow_Down_Right_SM" d="M311.163 648.837c16.663 16.662 43.677 16.662 60.34 0l268.497-268.497v152.994c0 23.564 19.102 42.667 42.667 42.667s42.667-19.103 42.667-42.667v-256c0-23.565-19.102-42.667-42.667-42.667h-256c-23.564 0-42.667 19.102-42.667 42.667s19.103 42.667 42.667 42.667h152.994l-268.497 268.497c-16.662 16.663-16.662 43.677 0 60.34z" />
<glyph unicode="&#xe91a;" glyph-name="Arrow_Down_SM" d="M512 704c23.565 0 42.667-19.103 42.667-42.667v-323.661l97.83 97.83c16.661 16.661 43.678 16.661 60.339 0s16.661-43.678 0-60.339l-170.667-170.667c-16.661-16.661-43.678-16.661-60.339 0l-170.667 170.667c-16.662 16.661-16.662 43.678 0 60.339s43.677 16.661 60.34 0l97.83-97.83v323.661c0 23.564 19.102 42.667 42.667 42.667z" />
<glyph unicode="&#xe91b;" glyph-name="Arrow_Down_Up" d="M341.333 789.333c23.564 0 42.667-19.103 42.667-42.667v-494.327l55.164 55.164c16.661 16.661 43.678 16.661 60.339 0s16.661-43.678 0-60.339l-128-128c-16.663-16.661-43.677-16.661-60.34 0l-128 128c-16.662 16.661-16.662 43.678 0 60.339s43.677 16.661 60.34 0l55.163-55.164v494.327c0 23.564 19.103 42.667 42.667 42.667zM652.497 776.837c16.661 16.662 43.678 16.662 60.339 0l128-128c16.661-16.663 16.661-43.677 0-60.34s-43.678-16.662-60.339 0l-55.164 55.164v-494.327c0-23.565-19.102-42.667-42.667-42.667s-42.667 19.102-42.667 42.667v494.327l-55.164-55.164c-16.661-16.662-43.678-16.662-60.339 0s-16.661 43.677 0 60.34l128 128z" />
<glyph unicode="&#xe91c;" glyph-name="Arrow_Left_LG" d="M371.503 691.503c16.662-16.663 16.662-43.677 0-60.34l-140.497-140.497h664.994c23.565 0 42.667-19.102 42.667-42.667s-19.102-42.667-42.667-42.667h-664.994l140.497-140.497c16.662-16.661 16.662-43.678 0-60.339s-43.677-16.661-60.34 0l-213.333 213.333c-16.662 16.661-16.662 43.678 0 60.339l213.333 213.334c16.663 16.662 43.677 16.662 60.34 0z" />
<glyph unicode="&#xe91d;" glyph-name="Arrow_Left_MD" d="M499.503 734.17c16.661-16.663 16.661-43.677 0-60.34l-183.163-183.163h494.327c23.565 0 42.667-19.102 42.667-42.667s-19.102-42.667-42.667-42.667h-494.327l183.163-183.164c16.661-16.661 16.661-43.678 0-60.339s-43.678-16.661-60.339 0l-256 256c-16.662 16.661-16.662 43.678 0 60.339l256 256c16.661 16.662 43.678 16.662 60.339 0z" />
<glyph unicode="&#xe91e;" glyph-name="Arrow_Left_Right" d="M371.503 776.837c16.662-16.663 16.662-43.677 0-60.34l-55.164-55.163h494.327c23.565 0 42.667-19.103 42.667-42.667s-19.102-42.667-42.667-42.667h-494.327l55.164-55.164c16.662-16.661 16.662-43.678 0-60.339s-43.677-16.661-60.34 0l-128 128c-16.662 16.663-16.662 43.677 0 60.34l128 128c16.663 16.662 43.677 16.662 60.34 0zM652.497 435.503c16.661 16.661 43.678 16.661 60.339 0l128-128c16.661-16.661 16.661-43.678 0-60.339l-128-128c-16.661-16.661-43.678-16.661-60.339 0s-16.661 43.678 0 60.339l55.164 55.164h-494.327c-23.564 0-42.667 19.102-42.667 42.667s19.103 42.667 42.667 42.667h494.327l-55.164 55.164c-16.661 16.661-16.661 43.678 0 60.339z" />
<glyph unicode="&#xe91f;" glyph-name="Arrow_Left_SM" d="M499.503 648.837c16.661-16.663 16.661-43.677 0-60.34l-97.83-97.83h323.66c23.565 0 42.667-19.102 42.667-42.667s-19.102-42.667-42.667-42.667h-323.66l97.83-97.83c16.661-16.661 16.661-43.678 0-60.339s-43.678-16.661-60.339 0l-170.667 170.667c-16.662 16.661-16.662 43.678 0 60.339l170.667 170.667c16.661 16.662 43.678 16.662 60.339 0z" />
<glyph unicode="&#xe920;" glyph-name="Arrow_Reload_02" d="M213.333 874.667c23.564 0 42.667-19.103 42.667-42.667v-97.789c23.162 20.721 48.865 38.653 76.609 53.312 63.524 33.563 135.201 48.63 206.86 43.493 71.663-5.137 140.433-30.286 198.515-72.561 58.086-42.279 103.147-100.005 130.057-166.617 8.828-21.848-1.728-46.716-23.573-55.543-21.85-8.828-46.716 1.728-55.543 23.577-20.932 51.809-55.979 96.707-101.158 129.591-45.18 32.887-98.671 52.444-154.398 56.439-55.74 3.995-111.49-7.725-160.894-33.828-25.614-13.533-48.994-30.656-69.488-50.74h123.681c23.565 0 42.667-19.103 42.667-42.667s-19.102-42.667-42.667-42.667h-213.333c-23.564 0-42.667 19.103-42.667 42.667v213.333c0 23.564 19.102 42.667 42.667 42.667zM179.517 359.684c21.848 8.828 46.716-1.728 55.543-23.578 20.932-51.806 55.979-96.704 101.156-129.587 45.164-32.875 98.711-52.416 154.464-56.414 55.731-3.994 111.433 7.723 160.841 33.826 25.609 13.534 48.981 30.652 69.47 50.735h-123.657c-23.565 0-42.667 19.102-42.667 42.667s19.102 42.667 42.667 42.667h213.333c23.565 0 42.667-19.102 42.667-42.667v-213.333c0-23.565-19.102-42.667-42.667-42.667s-42.667 19.102-42.667 42.667v97.809c-23.159-20.723-48.862-38.66-76.617-53.325-63.522-33.562-135.147-48.627-206.805-43.49-71.643 5.133-140.481 30.242-198.58 72.529-58.086 42.283-103.145 100.006-130.058 166.618-8.827 21.85 1.728 46.716 23.576 55.543z" />
<glyph unicode="&#xe921;" glyph-name="Arrow_Right_LG" d="M652.497 691.503c16.661 16.662 43.678 16.662 60.339 0l213.333-213.334c16.661-16.661 16.661-43.678 0-60.339l-213.333-213.333c-16.661-16.661-43.678-16.661-60.339 0s-16.661 43.678 0 60.339l140.497 140.497h-664.994c-23.564 0-42.667 19.102-42.667 42.667s19.103 42.667 42.667 42.667h664.994l-140.497 140.497c-16.661 16.663-16.661 43.677 0 60.34z" />
<glyph unicode="&#xe922;" glyph-name="Arrow_Right_MD" d="M524.497 734.17c16.661 16.662 43.678 16.662 60.339 0l256-256c16.661-16.661 16.661-43.678 0-60.339l-256-256c-16.661-16.661-43.678-16.661-60.339 0s-16.661 43.678 0 60.339l183.164 183.164h-494.327c-23.564 0-42.667 19.102-42.667 42.667s19.103 42.667 42.667 42.667h494.327l-183.164 183.163c-16.661 16.663-16.661 43.677 0 60.34z" />
<glyph unicode="&#xe923;" glyph-name="Arrow_Right_SM" d="M524.497 648.837c16.661 16.662 43.678 16.662 60.339 0l170.667-170.667c8-8 12.497-18.854 12.497-30.17s-4.497-22.17-12.497-30.17l-170.667-170.667c-16.661-16.661-43.678-16.661-60.339 0s-16.661 43.678 0 60.339l97.83 97.83h-323.661c-23.564 0-42.667 19.102-42.667 42.667s19.103 42.667 42.667 42.667h323.661l-97.83 97.83c-16.661 16.663-16.661 43.677 0 60.34z" />
<glyph unicode="&#xe924;" glyph-name="Arrow_Sub_Down_Left" d="M725.333 874.667c23.565 0 42.667-19.103 42.667-42.667v-419.908c0-22.447 0-41.818-1.301-57.779-1.378-16.845-4.42-33.609-12.642-49.741-12.271-24.085-31.876-43.691-55.962-55.962-16.132-8.222-32.896-11.264-49.741-12.642-15.962-1.301-35.332-1.301-57.779-1.301h-231.569l140.497-140.497c16.661-16.661 16.661-43.678 0-60.339s-43.678-16.661-60.339 0l-213.334 213.333c-16.662 16.661-16.662 43.678 0 60.339l213.334 213.333c16.661 16.663 43.678 16.663 60.339 0 16.661-16.661 16.661-43.678 0-60.339l-140.497-140.497h229.926c24.555 0 40.401 0.034 52.467 1.020 11.563 0.947 15.851 2.551 17.954 3.622 8.030 4.092 14.579 10.641 18.671 18.671 1.071 2.103 2.675 6.391 3.622 17.954 0.986 12.066 1.020 27.913 1.020 52.467v418.266c0 23.564 19.102 42.667 42.667 42.667z" />
<glyph unicode="&#xe925;" glyph-name="Arrow_Sub_Down_Right" d="M298.667 874.667c23.564 0 42.667-19.103 42.667-42.667v-418.133c0-24.602 0.033-40.478 1.021-52.561 0.947-11.584 2.553-15.881 3.63-17.993 4.109-8.064 10.645-14.601 18.636-18.671 2.1-1.071 6.389-2.675 17.966-3.622 12.072-0.986 27.93-1.020 52.482-1.020h229.926l-140.497 140.497c-16.661 16.661-16.661 43.678 0 60.339 16.661 16.663 43.678 16.663 60.339 0l213.333-213.333c16.661-16.661 16.661-43.678 0-60.339l-213.333-213.333c-16.661-16.661-43.678-16.661-60.339 0s-16.661 43.678 0 60.339l140.497 140.497h-231.569c-22.447 0-41.824 0-57.789 1.301-16.849 1.378-33.62 4.42-49.756 12.642-24.122 12.288-43.676 31.915-55.929 55.962-8.224 16.141-11.268 32.913-12.647 49.779-1.306 15.979-1.305 35.379-1.304 57.869v419.78c0 23.564 19.103 42.667 42.667 42.667z" />
<glyph unicode="&#xe926;" glyph-name="Arrow_Sub_Left_Down" d="M497.566 725.333h419.776c23.565 0 42.667-19.103 42.667-42.667s-19.102-42.667-42.667-42.667h-418.133c-24.597 0-40.486-0.033-52.582-1.021-11.601-0.948-15.898-2.556-18.005-3.63-8.029-4.090-14.546-10.608-18.637-18.636-1.073-2.107-2.682-6.407-3.629-18.006-0.988-12.094-1.021-27.983-1.021-52.582v-229.786l140.497 140.497c16.661 16.661 43.678 16.661 60.339 0s16.661-43.678 0-60.339l-213.333-213.333c-16.663-16.661-43.677-16.661-60.34 0l-213.333 213.333c-16.662 16.661-16.662 43.678 0 60.339s43.677 16.661 60.34 0l140.497-140.497v231.43c-0.001 22.493-0.001 41.9 1.304 57.885 1.378 16.869 4.42 33.653 12.647 49.8 12.272 24.085 31.844 43.657 55.929 55.929 16.146 8.227 32.931 11.269 49.8 12.647 15.983 1.306 35.392 1.305 57.886 1.304z" />
<glyph unicode="&#xe927;" glyph-name="Arrow_Sub_Left_Up" d="M289.83 712.837c16.663 16.662 43.677 16.662 60.34 0l213.333-213.334c16.661-16.661 16.661-43.678 0-60.339s-43.678-16.661-60.339 0l-140.497 140.497v-229.794c0-24.602 0.033-40.478 1.021-52.561 0.946-11.584 2.553-15.881 3.629-17.993 4.11-8.064 10.646-14.601 18.637-18.671 2.1-1.071 6.389-2.675 17.966-3.622 12.072-0.986 27.931-1.020 52.482-1.020h418.274c23.565 0 42.667-19.102 42.667-42.667s-19.102-42.667-42.667-42.667h-419.917c-22.447 0-41.824 0-57.789 1.301-16.849 1.378-33.62 4.42-49.756 12.642-24.122 12.288-43.676 31.915-55.929 55.962-8.225 16.141-11.268 32.913-12.647 49.779-1.306 15.979-1.305 35.379-1.304 57.869v231.441l-140.497-140.497c-16.663-16.661-43.677-16.661-60.34 0s-16.662 43.678 0 60.339l213.333 213.334z" />
<glyph unicode="&#xe928;" glyph-name="Arrow_Sub_Right_Down" d="M598.694 617.646c-12.083 0.988-27.959 1.021-52.561 1.021h-418.133c-23.564 0-42.667 19.102-42.667 42.667s19.103 42.667 42.667 42.667h419.78c22.49 0.001 41.89 0.001 57.869-1.304 16.866-1.379 33.638-4.422 49.779-12.647 24.047-12.253 43.674-31.807 55.962-55.929 8.222-16.136 11.264-32.907 12.642-49.756 1.301-15.965 1.301-35.342 1.301-57.789v-231.569l140.497 140.497c16.661 16.661 43.678 16.661 60.339 0s16.661-43.678 0-60.339l-213.333-213.333c-16.661-16.661-43.678-16.661-60.339 0l-213.333 213.333c-16.663 16.661-16.663 43.678 0 60.339 16.661 16.661 43.678 16.661 60.339 0l140.497-140.497v229.926c0 24.552-0.034 40.41-1.020 52.482-0.947 11.576-2.551 15.866-3.622 17.966-4.070 7.991-10.607 14.527-18.671 18.636-2.112 1.076-6.409 2.683-17.993 3.63z" />
<glyph unicode="&#xe929;" glyph-name="Arrow_Sub_Right_Up" d="M652.497 734.17c16.661 16.662 43.678 16.662 60.339 0l213.333-213.334c16.661-16.661 16.661-43.678 0-60.339s-43.678-16.661-60.339 0l-140.497 140.497v-231.569c0-22.447 0-41.818-1.301-57.779-1.378-16.845-4.42-33.609-12.642-49.741-12.271-24.085-31.876-43.691-55.962-55.962-16.132-8.222-32.896-11.264-49.741-12.642-15.962-1.301-35.332-1.301-57.779-1.301h-419.908c-23.564 0-42.667 19.102-42.667 42.667s19.103 42.667 42.667 42.667h418.266c24.555 0 40.401 0.034 52.467 1.020 11.563 0.947 15.851 2.551 17.954 3.622 8.030 4.092 14.579 10.641 18.671 18.671 1.071 2.103 2.675 6.391 3.622 17.954 0.986 12.066 1.020 27.913 1.020 52.467v229.926l-140.497-140.497c-16.661-16.661-43.678-16.661-60.339 0-16.663 16.661-16.663 43.678 0 60.339l213.333 213.334z" />
<glyph unicode="&#xe92a;" glyph-name="Arrow_Sub_Up_Left" d="M499.503 862.17c16.661-16.663 16.661-43.677 0-60.34l-140.497-140.497h231.441c22.49 0.001 41.89 0.001 57.869-1.304 16.866-1.379 33.638-4.422 49.779-12.647 24.047-12.253 43.674-31.807 55.962-55.929 8.222-16.136 11.264-32.907 12.642-49.756 1.301-15.963 1.301-35.343 1.301-57.789v-419.917c0-23.565-19.102-42.667-42.667-42.667s-42.667 19.102-42.667 42.667v418.274c0 24.55-0.034 40.41-1.020 52.482-0.947 11.576-2.551 15.866-3.622 17.966-4.070 7.991-10.607 14.527-18.671 18.637-2.112 1.076-6.409 2.683-17.993 3.629-12.083 0.988-27.959 1.021-52.561 1.021h-229.794l140.497-140.497c16.661-16.661 16.661-43.678 0-60.339s-43.678-16.661-60.339 0l-213.334 213.333c-16.662 16.663-16.662 43.677 0 60.34l213.334 213.333c16.661 16.662 43.678 16.662 60.339 0z" />
<glyph unicode="&#xe92b;" glyph-name="Arrow_Sub_Up_Right" d="M524.497 862.17c16.661 16.662 43.678 16.662 60.339 0l213.333-213.333c16.661-16.663 16.661-43.677 0-60.34l-213.333-213.333c-16.661-16.661-43.678-16.661-60.339 0s-16.661 43.678 0 60.339l140.497 140.497h-229.786c-24.599 0-40.488-0.033-52.582-1.021-11.599-0.947-15.899-2.556-18.006-3.629-8.028-4.091-14.546-10.609-18.636-18.637-1.074-2.107-2.682-6.407-3.63-18.006-0.988-12.096-1.021-27.985-1.021-52.582v-418.133c0-23.565-19.102-42.667-42.667-42.667s-42.667 19.102-42.667 42.667v419.776c-0.001 22.494-0.001 41.903 1.304 57.887 1.378 16.869 4.42 33.653 12.647 49.799 12.272 24.085 31.844 43.657 55.929 55.929 16.147 8.227 32.931 11.269 49.8 12.647 15.985 1.306 35.392 1.305 57.886 1.304h231.428l-140.497 140.497c-16.661 16.663-16.661 43.677 0 60.34z" />
<glyph unicode="&#xe92c;" glyph-name="Arrow_Undo_Down_Left" d="M426.667 746.667c0 23.564 19.102 42.667 42.667 42.667h213.333c141.385 0 256-114.615 256-256s-114.615-256-256-256h-451.66l97.83-97.83c16.662-16.661 16.662-43.678 0-60.339s-43.677-16.661-60.34 0l-170.667 170.667c-16.662 16.661-16.662 43.678 0 60.339l170.667 170.667c16.663 16.663 43.677 16.663 60.34 0 16.662-16.661 16.662-43.678 0-60.339l-97.83-97.83h451.66c94.255 0 170.667 76.412 170.667 170.667 0 94.257-76.412 170.667-170.667 170.667h-213.333c-23.565 0-42.667 19.103-42.667 42.667z" />
<glyph unicode="&#xe92d;" glyph-name="Arrow_Undo_Down_Right" d="M85.333 533.333c0 141.385 114.615 256 256 256h213.333c23.565 0 42.667-19.103 42.667-42.667s-19.102-42.667-42.667-42.667h-213.333c-94.257 0-170.667-76.41-170.667-170.667 0-94.255 76.41-170.667 170.667-170.667h451.661l-97.83 97.83c-16.661 16.661-16.661 43.678 0 60.339 16.661 16.663 43.678 16.663 60.339 0l170.667-170.667c16.661-16.661 16.661-43.678 0-60.339l-170.667-170.667c-16.661-16.661-43.678-16.661-60.339 0s-16.661 43.678 0 60.339l97.83 97.83h-451.661c-141.385 0-256 114.615-256 256z" />
<glyph unicode="&#xe92e;" glyph-name="Arrow_Undo_Up_Left" d="M328.837 776.837c16.662-16.663 16.662-43.677 0-60.34l-97.83-97.83h451.66c141.385 0 256-114.615 256-256s-114.615-256-256-256h-213.333c-23.565 0-42.667 19.102-42.667 42.667s19.102 42.667 42.667 42.667h213.333c94.255 0 170.667 76.412 170.667 170.667s-76.412 170.667-170.667 170.667h-451.66l97.83-97.83c16.662-16.661 16.662-43.678 0-60.339s-43.677-16.661-60.34 0l-170.667 170.666c-16.662 16.663-16.662 43.677 0 60.34l170.667 170.667c16.663 16.662 43.677 16.662 60.34 0z" />
<glyph unicode="&#xe92f;" glyph-name="Arrow_Undo_Up_Right" d="M695.164 776.837c16.661 16.662 43.678 16.662 60.339 0l170.667-170.667c16.661-16.663 16.661-43.677 0-60.34l-170.667-170.666c-16.661-16.661-43.678-16.661-60.339 0s-16.661 43.678 0 60.339l97.83 97.83h-451.661c-94.257 0-170.667-76.412-170.667-170.667s76.41-170.667 170.667-170.667h213.333c23.565 0 42.667-19.102 42.667-42.667s-19.102-42.667-42.667-42.667h-213.333c-141.385 0-256 114.615-256 256s114.615 256 256 256h451.661l-97.83 97.83c-16.661 16.663-16.661 43.677 0 60.34z" />
<glyph unicode="&#xe930;" glyph-name="Arrow_Up_Left_LG" d="M197.792 719.542c0 23.564 19.103 42.667 42.667 42.667h301.699c23.565 0 42.667-19.103 42.667-42.667s-19.102-42.667-42.667-42.667h-198.692l470.223-470.223c16.661-16.661 16.661-43.674 0-60.339-16.666-16.661-43.678-16.661-60.339 0l-470.223 470.223v-198.692c0-23.565-19.102-42.667-42.667-42.667s-42.667 19.102-42.667 42.667v301.699z" />
<glyph unicode="&#xe931;" glyph-name="Arrow_Up_Left_MD" d="M256 661.333c0 23.564 19.103 42.667 42.667 42.667h341.333c23.565 0 42.667-19.103 42.667-42.667s-19.102-42.667-42.667-42.667h-238.327l353.83-353.83c16.661-16.661 16.661-43.678 0-60.339s-43.678-16.661-60.339 0l-353.83 353.83v-238.327c0-23.565-19.103-42.667-42.667-42.667s-42.667 19.102-42.667 42.667v341.333z" />
<glyph unicode="&#xe932;" glyph-name="Arrow_Up_Left_SM" d="M298.667 618.667c0 23.564 19.103 42.667 42.667 42.667h256c23.565 0 42.667-19.103 42.667-42.667s-19.102-42.667-42.667-42.667h-152.994l268.497-268.497c16.661-16.661 16.661-43.678 0-60.339s-43.678-16.661-60.339 0l-268.497 268.497v-152.994c0-23.565-19.103-42.667-42.667-42.667s-42.667 19.102-42.667 42.667v256z" />
<glyph unicode="&#xe933;" glyph-name="Arrow_Up_LG" d="M481.83 862.17c16.661 16.662 43.678 16.662 60.339 0l213.333-213.333c16.661-16.663 16.661-43.677 0-60.34s-43.678-16.662-60.339 0l-140.497 140.497v-664.994c0-23.565-19.102-42.667-42.667-42.667s-42.667 19.102-42.667 42.667v664.994l-140.497-140.497c-16.663-16.662-43.677-16.662-60.34 0s-16.662 43.677 0 60.34l213.334 213.333z" />
<glyph unicode="&#xe934;" glyph-name="Arrow_Up_MD" d="M481.83 776.837c16.661 16.662 43.678 16.662 60.339 0l256-256c16.661-16.661 16.661-43.678 0-60.339s-43.678-16.661-60.339 0l-183.164 183.163v-494.327c0-23.565-19.102-42.667-42.667-42.667s-42.667 19.102-42.667 42.667v494.327l-183.163-183.163c-16.663-16.661-43.677-16.661-60.34 0s-16.662 43.678 0 60.339l256 256z" />
<glyph unicode="&#xe935;" glyph-name="Arrow_Up_Right_LG" d="M439.206 719.521c0 23.564 19.106 42.667 42.667 42.667h301.683c11.319 0 22.17-4.495 30.174-12.497 8-8.002 12.497-18.855 12.493-30.171l-0.013-301.701c-0.004-23.561-19.106-42.662-42.671-42.662s-42.667 19.106-42.662 42.671l0.009 198.683-470.215-470.218c-16.663-16.661-43.677-16.661-60.34 0-16.662 16.666-16.662 43.678 0 60.343l470.22 470.22h-198.677c-23.561 0-42.667 19.102-42.667 42.667z" />
<glyph unicode="&#xe936;" glyph-name="Arrow_Up_Right_MD" d="M341.333 661.333c0 23.564 19.103 42.667 42.667 42.667h341.333c23.565 0 42.667-19.103 42.667-42.667v-341.333c0-23.565-19.102-42.667-42.667-42.667s-42.667 19.102-42.667 42.667v238.327l-353.83-353.83c-16.663-16.661-43.677-16.661-60.34 0s-16.662 43.678 0 60.339l353.831 353.83h-238.327c-23.564 0-42.667 19.103-42.667 42.667z" />
<glyph unicode="&#xe937;" glyph-name="Arrow_Up_Right_SM" d="M384 618.667c0 23.564 19.103 42.667 42.667 42.667h256c23.565 0 42.667-19.103 42.667-42.667v-256c0-23.565-19.102-42.667-42.667-42.667s-42.667 19.102-42.667 42.667v152.994l-268.497-268.497c-16.663-16.661-43.677-16.661-60.34 0s-16.662 43.678 0 60.339l268.497 268.497h-152.994c-23.564 0-42.667 19.103-42.667 42.667z" />
<glyph unicode="&#xe938;" glyph-name="Arrow_Up_SM" d="M481.83 691.503c16.661 16.662 43.678 16.662 60.339 0l170.667-170.667c16.661-16.661 16.661-43.678 0-60.339s-43.678-16.661-60.339 0l-97.83 97.83v-323.66c0-23.565-19.102-42.667-42.667-42.667s-42.667 19.102-42.667 42.667v323.66l-97.83-97.83c-16.663-16.661-43.677-16.661-60.34 0s-16.662 43.678 0 60.339l170.667 170.667z" />
<glyph unicode="&#xe939;" glyph-name="Arrows_Reload_01" d="M810.667 874.667c23.565 0 42.667-19.103 42.667-42.667v-213.333c0-23.564-19.102-42.667-42.667-42.667h-213.333c-23.565 0-42.667 19.103-42.667 42.667s19.102 42.667 42.667 42.667h123.699c-20.489 20.086-43.861 37.207-69.474 50.74-49.408 26.106-105.105 37.823-160.841 33.828s-109.286-23.558-154.46-56.439c-45.178-32.884-80.224-77.782-101.156-129.591-8.827-21.848-33.695-32.405-55.543-23.577s-32.404 33.695-23.577 55.543c26.913 66.612 71.973 124.337 130.058 166.617 58.089 42.281 126.924 67.425 198.581 72.561 71.659 5.137 143.283-9.932 206.805-43.493 27.738-14.655 53.423-32.581 76.574-53.293v97.771c0 23.564 19.102 42.667 42.667 42.667zM844.467 359.684c21.845-8.828 32.401-33.694 23.573-55.543-26.91-66.611-71.97-124.335-130.057-166.618-58.091-42.283-126.865-67.396-198.515-72.529-71.659-5.137-143.335 9.924-206.859 43.49-27.744 14.656-53.447 32.589-76.61 53.308v-97.792c0-23.565-19.103-42.667-42.667-42.667s-42.667 19.102-42.667 42.667v213.333c0 23.565 19.102 42.667 42.667 42.667h213.333c23.565 0 42.667-19.102 42.667-42.667s-19.102-42.667-42.667-42.667h-123.679c20.493-20.079 43.872-37.201 69.486-50.735 49.403-26.099 105.154-37.82 160.894-33.826 55.74 3.998 109.227 23.531 154.398 56.414 45.18 32.883 80.226 77.781 101.158 129.587 8.828 21.85 33.694 32.405 55.543 23.578z" />
<glyph unicode="&#xe93a;" glyph-name="Bar_Bottom" d="M305.565 832h412.89c22.49 0.001 41.886 0.001 57.86-1.305 16.866-1.379 33.63-4.423 49.771-12.646 24.038-12.248 43.678-31.798 55.97-55.929 8.222-16.136 11.264-32.907 12.642-49.756 1.301-15.965 1.301-35.342 1.301-57.789v-413.15c0-22.447 0-41.818-1.301-57.775-1.378-16.845-4.42-33.604-12.642-49.737-12.271-24.085-31.885-43.699-55.97-55.97-16.132-8.222-32.892-11.264-49.737-12.642-15.957-1.301-35.328-1.301-57.775-1.301h-413.15c-22.447 0-41.824 0-57.789 1.301-16.849 1.378-33.62 4.42-49.756 12.642-24.131 12.292-43.68 31.932-55.929 55.97-8.224 16.141-11.268 32.905-12.646 49.771-1.306 15.974-1.306 35.371-1.305 57.86v412.89c-0.001 22.493-0.001 41.9 1.304 57.885 1.378 16.869 4.42 33.653 12.647 49.8 12.272 24.085 31.844 43.657 55.929 55.929 16.147 8.227 32.931 11.269 49.8 12.647 15.985 1.306 35.393 1.305 57.885 1.304zM254.626 745.646c-11.599-0.948-15.899-2.556-18.006-3.63-8.028-4.090-14.546-10.608-18.636-18.636-1.074-2.107-2.682-6.407-3.63-18.006-0.988-12.094-1.021-27.983-1.021-52.582v-290.125h597.333v290.265c0 24.553-0.034 40.41-1.020 52.482-0.947 11.576-2.551 15.866-3.622 17.966-4.066 7.982-10.603 14.522-18.679 18.636-2.112 1.077-6.409 2.683-17.984 3.63-12.079 0.988-27.951 1.021-52.553 1.021h-409.6c-24.599 0-40.488-0.033-52.582-1.021zM810.667 277.333h-597.333v-34.142c0-24.602 0.033-40.474 1.021-52.553 0.946-11.575 2.552-15.872 3.63-17.984 4.114-8.077 10.654-14.613 18.636-18.679 2.1-1.071 6.389-2.675 17.966-3.622 12.072-0.986 27.93-1.020 52.482-1.020h409.864c24.555 0 40.401 0.034 52.463 1.020 11.558 0.943 15.846 2.547 17.95 3.622 8.030 4.092 14.588 10.65 18.679 18.679 1.075 2.103 2.679 6.391 3.622 17.95 0.986 12.062 1.020 27.908 1.020 52.463v34.266z" />
<glyph unicode="&#xe93b;" glyph-name="Bar_Left" d="M305.565 832h412.89c22.49 0.001 41.886 0.001 57.86-1.305 16.866-1.379 33.63-4.423 49.771-12.646 24.038-12.248 43.678-31.798 55.97-55.929 8.222-16.136 11.264-32.907 12.642-49.756 1.301-15.965 1.301-35.342 1.301-57.789v-413.15c0-22.447 0-41.818-1.301-57.775-1.378-16.845-4.42-33.604-12.642-49.737-12.271-24.085-31.885-43.699-55.97-55.97-16.132-8.222-32.892-11.264-49.737-12.642-15.957-1.301-35.328-1.301-57.775-1.301h-413.149c-22.447 0-41.824 0-57.789 1.301-16.849 1.378-33.62 4.42-49.756 12.642-24.131 12.292-43.68 31.932-55.929 55.97-8.224 16.141-11.268 32.905-12.646 49.771-1.306 15.974-1.306 35.371-1.305 57.86v412.89c-0.001 22.493-0.001 41.9 1.304 57.885 1.378 16.869 4.42 33.653 12.647 49.8 12.272 24.085 31.844 43.657 55.929 55.929 16.147 8.227 32.931 11.269 49.8 12.647 15.985 1.306 35.393 1.305 57.885 1.304zM254.626 745.646c-11.599-0.948-15.899-2.556-18.006-3.63-8.028-4.090-14.546-10.608-18.636-18.636-1.074-2.107-2.682-6.407-3.63-18.006-0.988-12.094-1.021-27.983-1.021-52.582v-409.6c0-24.602 0.033-40.474 1.021-52.553 0.946-11.575 2.552-15.872 3.63-17.984 4.114-8.077 10.654-14.613 18.636-18.679 2.1-1.071 6.389-2.675 17.966-3.622 12.072-0.986 27.93-1.020 52.483-1.020h34.264v597.333h-34.125c-24.599 0-40.488-0.033-52.582-1.021zM426.667 746.667v-597.333h290.266c24.555 0 40.401 0.034 52.463 1.020 11.558 0.943 15.846 2.547 17.95 3.622 8.030 4.092 14.588 10.65 18.679 18.679 1.075 2.103 2.675 6.391 3.622 17.95 0.986 12.062 1.020 27.913 1.020 52.463v409.864c0 24.553-0.034 40.41-1.020 52.482-0.947 11.576-2.551 15.866-3.622 17.966-4.066 7.982-10.603 14.522-18.679 18.636-2.112 1.077-6.409 2.683-17.984 3.63-12.079 0.988-27.951 1.021-52.553 1.021h-290.142z" />
<glyph unicode="&#xe93c;" glyph-name="Bar_Right" d="M305.565 832h412.89c22.49 0.001 41.886 0.001 57.86-1.305 16.866-1.379 33.63-4.423 49.771-12.646 24.038-12.248 43.678-31.798 55.97-55.929 8.222-16.136 11.264-32.907 12.642-49.756 1.301-15.965 1.301-35.342 1.301-57.789v-413.15c0-22.447 0-41.813-1.301-57.775-1.378-16.845-4.42-33.604-12.642-49.737-12.271-24.085-31.885-43.699-55.97-55.97-16.132-8.222-32.892-11.264-49.737-12.642-15.957-1.301-35.328-1.301-57.775-1.301h-413.149c-22.447 0-41.824 0-57.79 1.301-16.849 1.378-33.62 4.42-49.757 12.642-24.131 12.292-43.68 31.932-55.929 55.97-8.224 16.141-11.268 32.905-12.646 49.771-1.306 15.974-1.306 35.371-1.305 57.86v412.89c-0.001 22.493-0.001 41.9 1.304 57.885 1.378 16.869 4.42 33.653 12.647 49.8 12.272 24.085 31.844 43.657 55.929 55.929 16.147 8.227 32.931 11.269 49.8 12.647 15.985 1.306 35.393 1.305 57.885 1.304zM254.626 745.646c-11.599-0.948-15.899-2.556-18.006-3.63-8.028-4.090-14.546-10.608-18.636-18.636-1.074-2.107-2.682-6.407-3.63-18.006-0.988-12.094-1.021-27.983-1.021-52.582v-409.6c0-24.602 0.033-40.474 1.021-52.553 0.946-11.575 2.552-15.872 3.63-17.984 4.114-8.077 10.654-14.613 18.636-18.679 2.1-1.071 6.39-2.675 17.966-3.622 12.073-0.986 27.93-1.020 52.483-1.020h290.263v597.333h-290.125c-24.599 0-40.488-0.033-52.582-1.021zM682.667 746.667v-597.333h34.266c24.555 0 40.401 0.034 52.463 1.020 11.558 0.943 15.846 2.547 17.95 3.622 8.030 4.092 14.588 10.65 18.679 18.679 1.075 2.103 2.679 6.391 3.622 17.95 0.986 12.062 1.020 27.913 1.020 52.463v409.864c0 24.553-0.034 40.41-1.020 52.482-0.947 11.576-2.551 15.866-3.622 17.966-4.066 7.982-10.603 14.522-18.679 18.636-2.112 1.077-6.409 2.683-17.984 3.63-12.079 0.988-27.951 1.021-52.553 1.021h-34.142z" />
<glyph unicode="&#xe93d;" glyph-name="Bar_Top" d="M305.565 832h412.89c22.49 0.001 41.886 0.001 57.86-1.305 16.866-1.379 33.63-4.423 49.771-12.646 24.038-12.248 43.678-31.798 55.97-55.929 8.222-16.136 11.264-32.907 12.642-49.756 1.301-15.965 1.301-35.342 1.301-57.789v-413.15c0-22.447 0-41.818-1.301-57.775-1.378-16.845-4.42-33.604-12.642-49.737-12.271-24.085-31.885-43.699-55.97-55.97-16.132-8.222-32.892-11.264-49.737-12.642-15.957-1.301-35.328-1.301-57.775-1.301h-413.149c-22.447 0-41.824 0-57.789 1.301-16.849 1.378-33.62 4.42-49.756 12.642-24.131 12.292-43.68 31.932-55.929 55.97-8.224 16.141-11.268 32.905-12.646 49.771-1.306 15.974-1.306 35.371-1.305 57.86v412.89c-0.001 22.493-0.001 41.9 1.304 57.885 1.378 16.869 4.42 33.653 12.647 49.8 12.272 24.085 31.844 43.657 55.929 55.929 16.147 8.227 32.931 11.269 49.8 12.647 15.985 1.306 35.393 1.305 57.885 1.304zM254.626 745.646c-11.599-0.948-15.899-2.556-18.006-3.63-8.028-4.090-14.546-10.608-18.636-18.636-1.074-2.107-2.682-6.407-3.63-18.006-0.988-12.094-1.021-27.983-1.021-52.582v-34.125h597.333v34.265c0 24.553-0.034 40.41-1.020 52.482-0.947 11.576-2.551 15.866-3.622 17.966-4.066 7.982-10.603 14.522-18.679 18.636-2.112 1.077-6.409 2.683-17.984 3.63-12.079 0.988-27.951 1.021-52.553 1.021h-409.6c-24.599 0-40.488-0.033-52.582-1.021zM810.667 533.333h-597.333v-290.142c0-24.602 0.033-40.474 1.021-52.553 0.946-11.575 2.552-15.872 3.63-17.984 4.114-8.077 10.654-14.613 18.636-18.679 2.1-1.071 6.389-2.675 17.966-3.622 12.072-0.986 27.93-1.020 52.483-1.020h409.863c24.555 0 40.401 0.034 52.463 1.020 11.558 0.943 15.846 2.547 17.95 3.622 8.030 4.092 14.588 10.65 18.679 18.679 1.075 2.103 2.675 6.391 3.622 17.95 0.986 12.062 1.020 27.913 1.020 52.463v290.266z" />
<glyph unicode="&#xe93e;" glyph-name="Bell_Close" d="M512 789.333c-141.387 0-256.002-114.615-256.002-256v-158.822c0-18.927-7.532-37.043-20.878-50.389l-16.619-16.619c-2.71-2.709-4.070-4.079-5.023-5.094-0.033-0.038-0.064-0.068-0.094-0.102-0.001-0.038-0.003-0.081-0.004-0.128-0.044-1.399-0.049-3.324-0.049-7.181 0-8.704 0.016-13.466 0.212-16.922 0.010-0.179 0.020-0.35 0.031-0.503 0.139-0.009 0.287-0.021 0.445-0.030 3.426-0.192 8.144-0.209 16.787-0.209h562.368c8.64 0 13.363 0.017 16.789 0.209 0.166 0.009 0.324 0.021 0.469 0.030 0.009 0.158 0.021 0.324 0.030 0.503 0.196 3.456 0.213 8.218 0.213 16.926 0 3.827-0.009 5.751-0.055 7.138 0 0.055 0 0.111-0.004 0.158-0.026 0.030-0.051 0.055-0.077 0.085-0.969 1.033-2.334 2.402-5.052 5.12l-16.619 16.619c-13.363 13.363-20.868 31.488-20.868 50.389v158.822c0 141.385-114.615 256-256 256zM170.665 533.333c0 188.513 152.821 341.333 341.335 341.333 188.51 0 341.333-152.82 341.333-341.333v-152.994l12.497-12.497c0.346-0.346 0.7-0.7 1.062-1.062 3.947-3.934 8.951-8.917 13.099-14.694 7.689-10.705 12.757-23.014 14.882-35.947 1.156-7.044 1.143-14.054 1.135-19.725 0-0.482 0-0.951 0-1.412 0-1.165 0.004-2.355 0.009-3.58 0.047-12.45 0.102-27.763-4.484-41.37-8.521-25.259-28.361-45.073-53.594-53.585-13.585-4.582-28.868-4.523-41.22-4.476-1.212 0.004-2.398 0.009-3.546 0.009h-110.507c0-94.255-76.412-170.667-170.667-170.667-94.258 0-170.669 76.412-170.669 170.667h-110.525c-1.151 0-2.335-0.004-3.546-0.009-12.353-0.047-27.629-0.107-41.21 4.476-25.268 8.525-45.065 28.361-53.575 53.585-4.59 13.611-4.532 28.919-4.485 41.37 0.005 1.22 0.009 2.415 0.009 3.575 0 0.491-0.001 0.994-0.002 1.506-0.010 5.594-0.023 12.617 1.128 19.635 2.124 12.941 7.2 25.246 14.883 35.947 4.16 5.794 9.136 10.752 13.141 14.746 0.346 0.346 0.684 0.683 1.013 1.011l12.503 12.506v152.986zM426.665 192c0-47.13 38.206-85.333 85.335-85.333 47.125 0 85.333 38.204 85.333 85.333h-170.669zM396.495 648.837c16.662 16.662 43.676 16.662 60.341 0l55.159-55.163 55.164 55.163c16.661 16.662 43.678 16.662 60.339 0 16.666-16.663 16.666-43.677 0-60.34l-55.159-55.162 55.159-55.165c16.666-16.661 16.666-43.678 0-60.339-16.661-16.661-43.678-16.661-60.339 0l-55.164 55.164-55.159-55.164c-16.666-16.661-43.679-16.661-60.341 0-16.663 16.666-16.663 43.678 0 60.339l55.162 55.165-55.162 55.162c-16.663 16.663-16.663 43.677 0 60.34z" />
<glyph unicode="&#xe93f;" glyph-name="Bell_Notification" d="M586.987 866.394c-24.162 5.419-49.263 8.272-74.987 8.272-188.513 0-341.333-152.82-341.333-341.332v-152.982l-17.676-17.698c0.005 0.004-0.006-0.009 0 0-15.968-15.983-24.991-37.67-24.991-60.322v-24.99c0-47.108 38.187-85.346 85.333-85.346h128c0.003-94.255 76.412-170.662 170.667-170.662s170.667 76.412 170.667 170.667h128c47.13 0 85.333 38.204 85.333 85.333v24.998c0 22.652-9.007 44.339-24.99 60.331l-17.677 17.677v152.986c51.755 38.874 85.333 100.833 85.333 170.675 0 117.821-95.514 213.333-213.333 213.333-52.783 0-101.124-19.209-138.347-50.939zM632.209 791.819c23.394 24.795 56.431 40.181 93.124 40.181 70.694 0 128-57.308 128-128 0-47.581-25.941-89.156-64.657-111.261-18.637-10.643-40.213-16.739-63.343-16.739-70.694 0-128 57.308-128 128 0 32.544 12.092 62.169 32.094 84.776 0.973 0.965 1.903 1.98 2.782 3.043zM768 494.942c-13.798-2.803-28.070-4.275-42.667-4.275-117.82 0-213.333 95.513-213.333 213.333 0 30.096 6.251 58.762 17.506 84.746-5.781 0.39-11.618 0.588-17.506 0.588-141.385 0-256-114.615-256-255.999v-158.823c0-18.931-7.526-37.013-20.85-50.347-0.006-0.009 0.006 0.004 0 0l-21.792-21.824-0.025-24.998 597.333-0.009v24.998l-21.794 21.79c-13.376 13.376-20.873 31.514-20.873 50.398v120.422zM597.333 192l-170.667-0.004c0-47.125 38.208-85.329 85.333-85.329 47.13 0 85.333 38.204 85.333 85.333z" />
<glyph unicode="&#xe940;" glyph-name="Bell_Ring" d="M289.306 899.759c14.181-18.819 10.421-45.571-8.398-59.753-52.962-39.91-94.685-92.855-121.108-153.679-9.388-21.613-34.52-31.523-56.133-22.134s-31.523 34.52-22.134 56.133c32.294 74.341 83.289 139.052 148.020 187.831 18.819 14.181 45.571 10.421 59.753-8.398zM734.716 899.759c14.182 18.819 40.934 22.579 59.755 8.398 64.73-48.779 115.725-113.489 148.019-187.831 9.391-21.613-0.521-46.745-22.135-56.133-21.611-9.389-46.741 0.521-56.132 22.134-26.423 60.824-68.147 113.769-121.109 153.679-18.816 14.181-22.575 40.933-8.397 59.753zM512 789.331c-141.384 0-256-114.615-256-256.002v-158.822c0-18.923-7.532-37.043-20.878-50.389l-16.619-16.619c-2.71-2.709-4.070-4.079-5.023-5.094-0.033-0.034-0.064-0.068-0.094-0.098-0.001-0.043-0.003-0.085-0.004-0.128-0.044-1.404-0.049-3.328-0.049-7.181 0-8.708 0.016-13.47 0.212-16.926 0.010-0.179 0.020-0.346 0.031-0.503 0.143-0.009 0.296-0.017 0.458-0.026 3.419-0.196 8.13-0.213 16.774-0.213h562.387c8.644 0 13.363 0.017 16.794 0.213 0.149 0.009 0.29 0.017 0.422 0.026 0.013 0.158 0.021 0.324 0.034 0.503 0.196 3.456 0.209 8.218 0.209 16.926 0 3.831-0.004 5.756-0.051 7.142 0 0.064-0.004 0.124-0.004 0.179-0.021 0.021-0.038 0.043-0.060 0.064-0.969 1.028-2.33 2.402-5.047 5.116l-16.619 16.623c-13.363 13.363-20.873 31.488-20.873 50.385v158.822c0 141.387-114.615 256.002-256 256.002zM170.667 533.329c0 188.515 152.82 341.335 341.333 341.335s341.333-152.82 341.333-341.335v-152.99l12.497-12.501c0.346-0.346 0.7-0.695 1.062-1.058 3.951-3.934 8.956-8.922 13.103-14.694 7.735-10.778 12.749-23.1 14.857-35.951 1.156-7.040 1.148-14.050 1.139-19.721-0.004-0.482-0.004-0.956-0.004-1.417 0-1.161 0.004-2.355 0.009-3.575 0.047-12.45 0.107-27.763-4.484-41.374-8.495-25.19-28.245-45.047-53.551-53.585-13.581-4.578-28.868-4.523-41.22-4.476-1.212 0.004-2.394 0.009-3.546 0.009h-110.528c0-94.255-76.412-170.667-170.667-170.667s-170.666 76.412-170.666 170.667h-110.525c-1.152 0-2.335-0.004-3.546-0.009-12.354-0.047-27.609-0.102-41.19 4.476-25.233 8.512-45.075 28.326-53.596 53.589-4.59 13.606-4.532 28.919-4.485 41.365 0.004 1.225 0.009 2.419 0.009 3.58 0 0.486-0.001 0.99-0.002 1.506-0.011 5.594-0.023 12.617 1.128 19.631 2.124 12.945 7.199 25.25 14.883 35.951 4.16 5.79 9.137 10.752 13.141 14.746 0.346 0.341 0.684 0.678 1.014 1.011l12.503 12.501v152.986zM426.667 191.996c0-47.125 38.204-85.333 85.333-85.333s85.333 38.208 85.333 85.333h-170.667z" />
<glyph unicode="&#xe941;" glyph-name="Bold" d="M298.667 746.667v-597.333c0-23.565 19.103-42.667 42.667-42.667h234.667c106.039 0 192 85.961 192 192 0 70.955-38.49 132.919-95.727 166.153 32.875 34.462 53.060 81.13 53.060 132.514 0 106.039-85.961 192-192 192h-192c-23.564 0-42.667-19.103-42.667-42.667zM533.333 490.667h-149.333v213.333h149.333c58.91 0 106.667-47.756 106.667-106.667s-47.757-106.667-106.667-106.667zM384 405.333h192c58.91 0 106.667-47.757 106.667-106.667s-47.757-106.667-106.667-106.667h-192v213.333z" />
<glyph unicode="&#xe942;" glyph-name="Book" d="M766.967 788.893c-4.979 0.407-11.908 0.439-24.559 0.439h-392.533c-24.599 0-40.488-0.033-52.582-1.021-11.599-0.948-15.899-2.556-18.006-3.63-8.028-4.090-14.546-10.608-18.636-18.636-1.074-2.107-2.682-6.407-3.63-18.006-0.988-12.094-1.021-27.983-1.021-52.582v-471.42c16.418 6.848 34.434 10.628 53.333 10.628h433.152c12.629 0 19.541 0.034 24.512 0.439 0.175 0.013 0.346 0.030 0.503 0.043 0.017 0.188 0.038 0.388 0.055 0.597 0.405 4.962 0.444 11.878 0.444 24.516v503.467c0 12.636-0.038 19.563-0.444 24.53-0.017 0.207-0.038 0.403-0.055 0.588-0.166 0.016-0.346 0.031-0.533 0.047zM725.333 149.333h-416c-25.802 0-47.325-18.321-52.266-42.667h442.752c12.629 0 19.541 0.034 24.512 0.439 0.175 0.013 0.346 0.030 0.503 0.043 0.017 0.188 0.034 0.388 0.055 0.597 0.405 4.962 0.444 11.883 0.444 24.521v17.067zM172.193 116.642c-0.995 3.614-1.526 7.42-1.526 11.349v569.11c-0.001 22.493-0.001 41.9 1.304 57.885 1.378 16.869 4.42 33.653 12.647 49.8 12.272 24.084 31.844 43.657 55.929 55.928 16.147 8.227 32.931 11.269 49.8 12.647 15.985 1.306 35.393 1.305 57.885 1.304h395.538c10.769 0.001 21.257 0.003 30.144-0.723 9.749-0.796 21.265-2.675 32.853-8.578 16.132-8.221 29.107-21.309 37.248-37.287 5.897-11.566 7.782-23.064 8.585-32.824 0.734-8.937 0.734-19.486 0.734-30.326v-505.869c0-10.837 0-21.38-0.734-30.315-0.802-9.762-2.692-21.248-8.585-32.806-7.445-14.618-18.97-26.897-33.348-35.196v-29.679c0-10.837 0-21.38-0.734-30.315-0.802-9.762-2.692-21.252-8.585-32.815-8.111-15.923-21.052-29.056-37.239-37.303-11.58-5.901-23.091-7.778-32.832-8.576-8.875-0.725-19.349-0.721-30.097-0.721h-455.846c-41.237 0-74.667 33.429-74.667 74.667 0 7.014 0.521 13.909 1.526 20.642z" />
<glyph unicode="&#xe943;" glyph-name="Book_Open" d="M131.921 201.297c11.571-5.897 23.067-7.778 32.813-8.576 8.87-0.725 19.34-0.721 30.085-0.721h122.225c42.729 0 55.2-0.435 65.894-3.682 10.782-3.273 20.801-8.627 29.429-15.718 8.576-7.049 15.806-17.114 39.324-52.386l24.811-37.21c7.915-11.87 21.235-18.995 35.503-18.995 14.263 0 27.584 7.13 35.499 18.999l24.533 36.804c23.693 35.537 30.993 45.687 39.629 52.787 8.674 7.13 18.633 12.463 29.359 15.718 10.692 3.247 23.202 3.682 65.933 3.682h122.223c10.748 0 21.218-0.004 30.089 0.721 9.745 0.798 21.248 2.679 32.819 8.576 16.158 8.23 29.133 21.35 37.261 37.308 5.892 11.558 7.782 23.044 8.585 32.806 0.738 8.934 0.734 19.477 0.734 30.315v377.869c0 10.84 0.004 21.388-0.734 30.326-0.802 9.76-2.688 21.258-8.585 32.824-8.166 16.032-21.193 29.094-37.274 37.287-11.584 5.902-23.095 7.781-32.849 8.578-8.883 0.726-19.371 0.724-30.14 0.723h-114.057c-34.347 0-62.694 0.001-85.786-1.886-23.983-1.959-46.029-6.164-66.739-16.716-19.277-9.822-36.382-23.156-50.509-39.185-14.14 16.032-31.249 29.365-50.522 39.185-20.71 10.551-42.758 14.757-66.742 16.716-23.093 1.887-51.441 1.886-85.787 1.886h-112.695c-0.454 0-0.908 0-1.361 0zM469.333 541.875v-305.706c-0.917 0.798-1.843 1.583-2.782 2.355-17.374 14.276-37.397 24.939-58.817 31.445-24.377 7.403-50.475 7.386-85.064 7.364-1.85 0-3.726 0-5.626 0h-120.864c-12.629 0-19.532 0.034-24.491 0.439-0.187 0.013-0.365 0.030-0.533 0.047-0.017 0.179-0.033 0.367-0.050 0.572-0.406 4.966-0.439 11.887-0.439 24.538v375.467c0 12.651 0.033 19.577 0.439 24.554 0.016 0.198 0.032 0.385 0.049 0.562 0.175 0.016 0.359 0.032 0.553 0.048 4.971 0.407 11.889 0.439 24.541 0.439h110.933c36.547 0 61.394-0.033 80.6-1.602 18.709-1.528 28.276-4.299 34.949-7.698 16.052-8.179 29.112-21.238 37.291-37.299 3.405-6.677 6.174-16.243 7.706-34.941 1.57-19.198 1.604-44.039 1.604-80.584zM554.667 236.143v305.732c0 36.548 0.034 61.388 1.604 80.588 1.527 18.7 4.297 28.264 7.697 34.938 8.188 16.071 21.235 29.125 37.278 37.299 6.673 3.4 16.239 6.17 34.948 7.698 19.204 1.569 44.049 1.602 80.597 1.602h110.933c12.651 0 19.575-0.033 24.555-0.439 0.196-0.016 0.38-0.032 0.555-0.048 0.017-0.184 0.038-0.379 0.055-0.586 0.405-4.967 0.444-11.894 0.444-24.53v-375.467c0-12.638-0.038-19.554-0.444-24.516-0.017-0.209-0.038-0.41-0.055-0.597-0.162-0.013-0.337-0.030-0.516-0.043-4.962-0.405-11.87-0.439-24.499-0.439h-120.862c-1.899 0-3.776 0-5.628 0-34.586 0.021-60.723 0.038-85.103-7.364-21.478-6.524-41.417-17.203-58.743-31.445-0.951-0.781-1.89-1.574-2.816-2.381zM194.889 789.333c-10.767 0.001-21.252 0.003-30.132-0.723zM164.757 788.61c-9.755-0.797-21.258-2.679-32.835-8.578zM131.921 780.032c-16.056-8.181-29.106-21.231-37.287-37.287zM94.634 742.745c-5.902-11.584-7.781-23.096-8.578-32.848zM86.057 709.897c-0.726-8.883-0.724-19.372-0.723-30.141zM85.333 679.756c0-0.453 0-0.907 0-1.36zM85.334 678.396v-375.467zM85.334 302.929v-1.361zM85.333 301.568c-0.001-10.769-0.003-21.252 0.723-30.131zM86.057 271.437c0.798-9.754 2.679-21.257 8.578-32.832zM94.634 238.605l37.528 19.123zM94.634 238.605l37.528 19.123zM94.634 238.605c8.158-16.009 21.185-29.103 37.287-37.308z" />
<glyph unicode="&#xe944;" glyph-name="Bookmark" d="M390.898 832h242.224c22.49 0.001 41.886 0.001 57.86-1.305 16.866-1.379 33.63-4.423 49.771-12.646 24.038-12.248 43.678-31.798 55.97-55.929 8.222-16.136 11.264-32.907 12.642-49.756 1.301-15.965 1.301-35.342 1.301-57.789v-407.962c0-27.776 0-50.705-1.178-68.838-1.178-18.069-3.725-36.681-11.887-53.333-24.213-49.408-77.286-77.786-131.81-70.532-18.368 2.445-35.268 10.633-50.97 19.682-15.834 9.122-35.038 21.922-58.321 37.444l-0.87 0.58c-21.158 14.106-25.621 16.704-29.431 18.052-9.203 3.251-19.243 3.251-28.442 0-3.793-1.34-8.222-3.917-29.299-17.967l-1.344-0.896c-23.113-15.411-42.193-28.13-57.935-37.205-15.689-9.050-32.588-17.25-50.969-19.699-54.53-7.253-107.599 21.137-131.814 70.541-8.161 16.649-10.71 35.26-11.885 53.333-1.179 18.129-1.179 41.058-1.179 68.838v407.822c-0.001 22.493-0.001 41.9 1.304 57.885 1.378 16.869 4.42 33.653 12.647 49.8 12.272 24.085 31.844 43.657 55.929 55.929 16.147 8.227 32.931 11.269 49.8 12.647 15.985 1.306 35.393 1.305 57.885 1.304zM339.959 745.646c-11.599-0.948-15.899-2.556-18.006-3.63-8.028-4.090-14.546-10.608-18.636-18.636-1.074-2.107-2.682-6.407-3.63-18.006-0.988-12.094-1.021-27.983-1.021-52.582v-404.702c0-29.628 0.022-49.754 0.999-64.777 1.002-15.403 2.807-20.194 3.356-21.316 8.069-16.461 25.752-25.924 43.935-23.505 1.235 0.162 6.223 1.318 19.597 9.028 13.044 7.522 29.805 18.671 54.456 35.106l0.116 0.077c1.123 0.747 2.234 1.493 3.337 2.227 15.815 10.569 29.673 19.827 44.858 25.195 27.601 9.754 57.715 9.754 85.316 0 15.202-5.376 29.099-14.66 44.979-25.267 1.105-0.742 2.223-1.485 3.349-2.24 24.644-16.427 41.412-27.571 54.455-35.089 13.376-7.706 18.381-8.866 19.627-9.033 18.185-2.419 35.866 7.044 43.934 23.501 0.546 1.118 2.351 5.909 3.354 21.316 0.977 15.027 0.998 35.157 0.998 64.777v404.842c0 24.553-0.034 40.41-1.020 52.482-0.947 11.576-2.551 15.866-3.622 17.966-4.066 7.982-10.603 14.522-18.679 18.636-2.112 1.077-6.409 2.683-17.984 3.63-12.079 0.988-27.951 1.021-52.553 1.021h-238.933c-24.599 0-40.488-0.033-52.582-1.021z" />
<glyph unicode="&#xe945;" glyph-name="Building_01" d="M305.565 832h71.556c22.49 0.001 41.886 0.001 57.861-1.305 16.866-1.379 33.63-4.423 49.771-12.646 24.038-12.248 43.678-31.798 55.97-55.929 8.222-16.136 11.264-32.907 12.642-49.756 1.301-15.965 1.301-35.342 1.301-57.789v-40.526c8.252 5.121 17.122 9.456 27.046 12.447 24.090 7.262 49.801 7.262 73.894 0 16.026-4.831 29.308-13.164 41.698-22.662 11.699-8.969 24.875-20.809 40.068-34.457l99.191-89.113c0.905-0.811 1.801-1.617 2.688-2.415 13.969-12.527 26.21-23.505 35.294-37.15 7.953-11.955 13.828-25.143 17.399-39.036 4.087-15.885 4.070-32.341 4.053-51.127 0-1.182 0-2.377 0-3.58v-197.623h42.667c23.565 0 42.667-19.102 42.667-42.667s-19.102-42.667-42.667-42.667h-853.333c-23.564 0-42.667 19.102-42.667 42.667s19.103 42.667 42.667 42.667h42.667v505.102c-0.001 22.493-0.001 41.9 1.304 57.885 1.378 16.869 4.42 33.653 12.647 49.8 12.272 24.085 31.844 43.657 55.929 55.929 16.146 8.227 32.931 11.269 49.799 12.647 15.986 1.306 35.393 1.305 57.886 1.304zM213.333 149.333h128v197.623c0 1.289-0.001 2.564-0.003 3.827-0.018 18.628-0.035 35.055 4.035 50.884 3.575 13.905 9.46 27.089 17.407 39.031 9.056 13.606 21.314 24.597 35.184 37.035 0.934 0.836 1.874 1.677 2.821 2.53l68.556 61.59v111.078c0 24.553-0.034 40.41-1.020 52.482-0.947 11.576-2.551 15.866-3.622 17.966-4.066 7.982-10.607 14.522-18.679 18.636-2.116 1.077-6.409 2.683-17.984 3.63-12.079 0.988-27.952 1.021-52.553 1.021h-68.267c-24.599 0-40.488-0.033-52.582-1.021-11.599-0.948-15.899-2.556-18.006-3.63-8.028-4.090-14.546-10.608-18.637-18.636-1.073-2.107-2.682-6.407-3.629-18.006-0.988-12.094-1.021-27.983-1.021-52.582v-503.458zM426.667 149.333h384v197.623c0 24.546-0.329 29.436-1.365 33.459-1.19 4.642-3.149 9.028-5.794 13.005-2.3 3.456-5.709 6.959-23.97 23.364l-98.133 88.162c-16.619 14.929-27.298 24.478-36.015 31.163-8.299 6.362-12.203 8.019-14.413 8.684-8.030 2.421-16.606 2.421-24.636 0-2.197-0.662-6.089-2.312-14.374-8.666-8.708-6.677-19.362-16.209-35.959-31.121l-98.202-88.222c-18.283-16.427-21.705-19.925-23.991-23.364-2.658-3.989-4.612-8.38-5.803-13.005-1.028-4.006-1.344-8.849-1.344-33.459v-197.623z" />
<glyph unicode="&#xe946;" glyph-name="Building_02" d="M305.565 832h71.555c22.491 0.001 41.892 0.001 57.871-1.304 16.866-1.379 33.638-4.422 49.783-12.647 24.060-12.259 43.665-31.82 55.949-55.929 8.222-16.136 11.264-32.907 12.642-49.756 1.301-15.965 1.301-35.342 1.301-57.789v-40.527c8.256 5.122 17.126 9.457 27.051 12.448 24.094 7.262 49.796 7.262 73.89 0 16.026-4.831 29.308-13.164 41.698-22.662 11.699-8.969 24.875-20.808 40.064-34.455l99.196-89.115c0.905-0.811 1.801-1.617 2.692-2.415 13.965-12.527 26.206-23.505 35.29-37.15 7.923-11.908 13.837-25.088 17.421-39.036 4.070-15.825 4.053-32.256 4.036-50.88-0.004-1.263-0.004-2.539-0.004-3.827v-197.623h42.667c23.565 0 42.667-19.102 42.667-42.667s-19.102-42.667-42.667-42.667h-853.333c-23.564 0-42.667 19.102-42.667 42.667s19.103 42.667 42.667 42.667h42.667v505.102c-0.001 22.493-0.001 41.9 1.304 57.885 1.378 16.869 4.42 33.653 12.647 49.8 12.272 24.085 31.844 43.657 55.929 55.929 16.146 8.227 32.931 11.269 49.799 12.647 15.986 1.306 35.393 1.305 57.886 1.304zM213.333 149.333h256v503.599c0 24.553-0.034 40.41-1.020 52.482-0.947 11.576-2.551 15.866-3.622 17.966-4.079 8.004-10.607 14.534-18.658 18.636-2.112 1.076-6.409 2.683-17.993 3.63-12.086 0.988-27.965 1.021-52.565 1.021h-68.267c-24.599 0-40.488-0.033-52.582-1.021-11.599-0.948-15.899-2.556-18.006-3.63-8.028-4.090-14.546-10.608-18.637-18.636-1.073-2.107-2.682-6.407-3.629-18.006-0.988-12.094-1.021-27.983-1.021-52.582v-503.458zM554.667 149.333h256v197.623c0 24.606-0.316 29.457-1.344 33.459-1.178 4.587-3.136 8.981-5.815 13.005-2.3 3.456-5.709 6.959-23.97 23.364l-98.133 88.162c-16.619 14.929-27.298 24.478-36.015 31.163-8.299 6.362-12.203 8.019-14.413 8.684-8.030 2.421-16.602 2.421-24.631 0-2.202-0.663-6.101-2.317-14.4-8.682-8.717-6.688-19.392-16.236-36.011-31.165l-1.267-1.139v-354.475z" />
<glyph unicode="&#xe947;" glyph-name="Building_03" d="M433.566 832h284.89c22.49 0.001 41.886 0.001 57.86-1.305 16.866-1.379 33.63-4.423 49.771-12.646 24.038-12.248 43.678-31.798 55.97-55.929 8.222-16.136 11.264-32.907 12.642-49.756 1.301-15.965 1.301-35.342 1.301-57.789v-505.242h42.667c23.565 0 42.667-19.102 42.667-42.667s-19.102-42.667-42.667-42.667h-853.333c-23.564 0-42.667 19.102-42.667 42.667s19.103 42.667 42.667 42.667h42.667v197.623c0 1.289-0.001 2.564-0.003 3.827-0.018 18.628-0.035 35.055 4.035 50.884 3.575 13.905 9.46 27.089 17.407 39.031 9.056 13.606 21.314 24.597 35.184 37.035 0.933 0.836 1.874 1.677 2.821 2.53l68.556 61.59v112.581c-0.001 22.493-0.001 41.9 1.304 57.885 1.378 16.869 4.42 33.653 12.647 49.8 12.272 24.085 31.844 43.657 55.929 55.929 16.146 8.227 32.931 11.269 49.799 12.647 15.986 1.306 35.393 1.305 57.887 1.304zM341.333 614.050c8.254 5.121 17.123 9.456 27.046 12.447 24.092 7.262 49.801 7.262 73.895 0 16.026-4.831 29.308-13.164 41.698-22.662 11.699-8.969 24.875-20.809 40.068-34.457l99.191-89.113c0.905-0.811 1.801-1.617 2.692-2.415 13.969-12.527 26.206-23.505 35.29-37.15 7.953-11.955 13.828-25.143 17.399-39.031 4.087-15.889 4.070-32.346 4.053-51.132 0-1.182 0-2.377 0-3.58v-197.623h128v503.599c0 24.553-0.034 40.41-1.020 52.482-0.947 11.576-2.551 15.866-3.622 17.966-4.066 7.982-10.603 14.522-18.679 18.636-2.112 1.077-6.409 2.683-17.984 3.63-12.079 0.988-27.951 1.021-52.553 1.021h-281.6c-24.599 0-40.488-0.033-52.582-1.021-11.599-0.948-15.899-2.556-18.006-3.63-8.028-4.090-14.546-10.608-18.637-18.636-1.073-2.107-2.682-6.407-3.629-18.006-0.988-12.094-1.021-27.983-1.021-52.582v-38.742zM597.333 149.333v197.623c0 24.546-0.329 29.436-1.365 33.459-1.19 4.642-3.149 9.028-5.794 13.005-2.3 3.456-5.709 6.959-23.97 23.364l-98.133 88.162c-16.619 14.929-27.298 24.478-36.015 31.163-8.3 6.362-12.204 8.019-14.411 8.684-8.031 2.421-16.607 2.421-24.637 0-2.196-0.662-6.088-2.312-14.374-8.666-8.707-6.677-19.364-16.209-35.959-31.121l-98.201-88.222c-18.286-16.427-21.705-19.925-23.995-23.364-2.654-3.989-4.611-8.38-5.801-13.005-1.030-4.006-1.344-8.849-1.344-33.459v-197.623h384z" />
<glyph unicode="&#xe948;" glyph-name="Building_04" d="M305.565 874.667h156.89c22.49 0.001 41.886 0.001 57.86-1.305 16.866-1.379 33.63-4.423 49.771-12.646 24.038-12.248 43.678-31.798 55.97-55.929 8.222-16.136 11.264-32.907 12.642-49.756 1.301-15.965 1.301-35.342 1.301-57.789v-85.945c11.84 3.999 23.787 5.644 35.729 6.458 13.363 0.912 29.513 0.911 48.23 0.911h2.726c18.718 0 34.871 0.001 48.243-0.911 14.071-0.96 28.156-3.071 42.065-8.832 31.386-13.001 56.277-37.942 69.257-69.283 5.76-13.902 7.876-27.973 8.836-42.045 0.913-13.38 0.913-29.547 0.913-48.294v-299.968h42.667c23.565 0 42.667-19.102 42.667-42.667s-19.102-42.667-42.667-42.667h-853.333c-23.564 0-42.667 19.102-42.667 42.667s19.103 42.667 42.667 42.667h42.667v547.768c-0.001 22.493-0.001 41.9 1.304 57.885 1.378 16.869 4.42 33.653 12.647 49.8 12.272 24.085 31.844 43.657 55.929 55.929 16.146 8.227 32.931 11.269 49.799 12.647 15.986 1.306 35.393 1.305 57.886 1.304zM213.333 149.333h341.333v300.032c0 0.777 0 1.553 0 2.325v243.908c0 24.553-0.034 40.41-1.020 52.482-0.947 11.576-2.551 15.866-3.622 17.966-4.066 7.982-10.607 14.522-18.679 18.636-2.116 1.077-6.409 2.683-17.984 3.63-12.079 0.988-27.951 1.021-52.553 1.021h-153.6c-24.599 0-40.488-0.033-52.582-1.021-11.599-0.948-15.899-2.556-18.006-3.63-8.028-4.090-14.546-10.608-18.637-18.636-1.073-2.107-2.682-6.407-3.629-18.006-0.988-12.094-1.021-27.983-1.021-52.582v-546.125zM640 448v-298.667h170.667v298.667c0 20.463-0.026 33.668-0.717 43.776-0.661 9.724-1.796 13.427-2.534 15.211-4.339 10.475-12.646 18.778-23.078 23.1-1.771 0.734-5.478 1.869-15.215 2.534-10.121 0.691-23.334 0.713-43.802 0.713-20.463 0-33.673-0.021-43.785-0.713-9.728-0.666-13.431-1.801-15.206-2.534-10.436-4.322-18.743-12.629-23.083-23.1-0.734-1.779-1.869-5.483-2.534-15.206-0.691-10.108-0.713-23.317-0.713-43.78zM256 661.333c0 23.564 19.103 42.667 42.667 42.667h170.667c23.565 0 42.667-19.103 42.667-42.667s-19.102-42.667-42.667-42.667h-170.667c-23.564 0-42.667 19.102-42.667 42.667zM256 533.333c0 23.564 19.103 42.667 42.667 42.667h170.667c23.565 0 42.667-19.103 42.667-42.667s-19.102-42.667-42.667-42.667h-170.667c-23.564 0-42.667 19.102-42.667 42.667z" />
<glyph unicode="&#xe949;" glyph-name="Bulb" d="M213.333 576c0 164.949 133.718 298.667 298.667 298.667 164.945 0 298.675-133.716 298.675-298.667 0-60.395-17.971-116.719-48.866-163.763-2.748-4.186-5.402-8.23-7.966-12.13-16.427-25.011-29.052-44.233-38.118-58.095-5.244-8.017-9.246-14.165-12.087-18.569-2.637-4.087-3.785-5.935-4.070-6.391-0.060-0.094-0.081-0.128-0.073-0.115v0c-3.068-5.376-5.675-9.826-7.842-13.521-0.346-0.585-0.674-1.148-0.99-1.681-1.728-2.935-3.012-5.12-4.1-7.036-1.033-1.809-1.613-2.918-1.92-3.524-0.077-0.678-0.201-1.924-0.333-4.015-0.137-2.18-0.26-4.689-0.427-8.055-0.034-0.644-0.064-1.318-0.102-2.031-0.213-4.279-0.478-9.434-0.866-15.612-0.226-3.614-0.247-9.865-0.247-26.795 0-47.13-38.204-85.333-85.333-85.333h-170.667c-47.128 0-85.333 38.204-85.333 85.333 0 16.926-0.024 23.181-0.25 26.795-0.386 6.178-0.652 11.328-0.866 15.607-0.034 0.67-0.066 1.314-0.096 1.924-0.17 3.413-0.296 5.952-0.436 8.149-0.132 2.082-0.253 3.328-0.33 4.002-0.307 0.61-0.893 1.724-1.931 3.541-1.082 1.903-2.355 4.066-4.060 6.963-0.329 0.559-0.673 1.148-1.036 1.762-2.172 3.695-4.778 8.149-7.846 13.525 0.003-0.009-0.017 0.026-0.062 0.098-0.265 0.427-1.414 2.27-4.091 6.426-2.836 4.403-6.834 10.547-12.073 18.564-10.469 16.017-25.695 39.206-46.057 70.212-30.896 47.044-48.866 103.369-48.866 163.763zM512 789.333c-117.821 0-213.333-95.513-213.333-213.333 0-43.243 12.822-83.362 34.86-116.924l5.696-8.67c36.235-55.177 56.021-85.303 59.369-91.17l-37.055-21.15zM725.342 576c0 117.819-95.518 213.333-213.342 213.333zM690.483 459.076c22.037 33.562 34.859 73.681 34.859 116.924zM679.061 441.69c3.627 5.521 7.433 11.315 11.422 17.387zM679.061 441.69c-32.589-49.613-50.513-76.902-53.679-82.453zM425.444 281.331c0.207-4.147 0.453-8.892 0.806-14.545 0.416-6.69 0.416-15.949 0.416-30.007v-2.112h170.667v2.189c0 14.016 0 23.253 0.414 29.931v0c0.354 5.653 0.602 10.394 0.806 14.537 0.030 0.623 0.064 1.242 0.094 1.86 0.162 3.337 0.324 6.545 0.499 9.361 0.414 6.554 1.088 14.49 3.652 23.074 2.564 8.593 6.357 15.595 9.613 21.312 1.404 2.47 3.042 5.257 4.749 8.158 0.303 0.516 0.606 1.033 0.913 1.553 2.103 3.575 4.501 7.676 7.309 12.595zM425.355 283.11c0.029-0.589 0.059-1.186 0.089-1.779zM425.355 283.11c-0.167 3.371-0.328 6.605-0.509 9.451zM421.178 315.652c2.572-8.589 3.251-16.525 3.669-23.091zM411.561 336.943c3.252-5.705 7.046-12.71 9.616-21.291zM406.846 345.033c1.693-2.876 3.32-5.641 4.716-8.090zM405.898 346.645c0.317-0.538 0.634-1.075 0.948-1.613zM398.592 359.236c2.807-4.915 5.205-9.015 7.306-12.591zM341.333 64c0-23.565 19.103-42.667 42.667-42.667h256c23.565 0 42.667 19.102 42.667 42.667s-19.102 42.667-42.667 42.667h-256c-23.564 0-42.667-19.102-42.667-42.667z" />
<glyph unicode="&#xe94a;" glyph-name="Calendar" d="M341.333 917.333c23.564 0 42.667-19.103 42.667-42.667v-42.667h256v42.667c0 23.564 19.102 42.667 42.667 42.667s42.667-19.103 42.667-42.667v-42.668c19.588-0.012 36.659-0.132 50.982-1.303 16.866-1.379 33.63-4.423 49.771-12.647 24.038-12.248 43.678-31.798 55.97-55.929 8.222-16.136 11.264-32.907 12.642-49.756 1.301-15.965 1.301-35.343 1.301-57.789v-413.172c0-22.447 0-41.813-1.301-57.775-1.378-16.845-4.42-33.604-12.642-49.737-12.279-24.107-31.906-43.691-55.97-55.949-16.132-8.222-32.892-11.264-49.737-12.642-15.957-1.301-35.328-1.301-57.775-1.301h-413.15c-22.447 0-41.824 0-57.789 1.301-16.849 1.378-33.62 4.42-49.756 12.642-24.109 12.284-43.669 31.889-55.929 55.949-8.225 16.145-11.268 32.917-12.647 49.783-1.306 15.979-1.305 35.379-1.304 57.869v412.89c-0.001 22.493-0.001 41.9 1.304 57.886 1.378 16.869 4.42 33.653 12.647 49.799 12.272 24.085 31.844 43.657 55.929 55.929 16.147 8.227 32.931 11.269 49.8 12.647 14.327 1.17 31.404 1.291 50.987 1.303v42.668c0 23.564 19.103 42.667 42.667 42.667zM254.626 745.646c-11.599-0.947-15.899-2.556-18.006-3.629-8.028-4.091-14.546-10.609-18.636-18.637-1.074-2.107-2.682-6.407-3.63-18.006-0.868-10.633-0.999-24.2-1.018-44.041h597.326c-0.017 19.87-0.145 33.445-1.015 44.081-0.947 11.576-2.551 15.866-3.622 17.966-4.066 7.982-10.603 14.522-18.679 18.637-2.112 1.077-6.409 2.683-17.984 3.63-12.079 0.987-27.951 1.021-52.553 1.021h-409.6c-24.599 0-40.488-0.033-52.582-1.021zM810.667 576h-597.333v-332.809c0-24.602 0.033-40.478 1.021-52.565 0.947-11.584 2.554-15.881 3.63-17.993 4.103-8.051 10.632-14.579 18.636-18.658 2.1-1.071 6.389-2.675 17.966-3.622 12.072-0.986 27.93-1.020 52.482-1.020h409.864c24.555 0 40.401 0.034 52.463 1.020 11.558 0.947 15.846 2.547 17.95 3.622 8.051 4.1 14.601 10.654 18.679 18.658 1.075 2.103 2.679 6.391 3.622 17.95 0.986 12.062 1.020 27.913 1.020 52.463v332.954z" />
<glyph unicode="&#xe94b;" glyph-name="Calendar_Add" d="M341.333 917.333c23.564 0 42.667-19.103 42.667-42.667v-42.667h256v42.667c0 23.564 19.102 42.667 42.667 42.667s42.667-19.103 42.667-42.667v-42.668c19.588-0.012 36.663-0.132 50.991-1.303 16.866-1.379 33.638-4.422 49.783-12.647 24.060-12.259 43.665-31.82 55.949-55.929 8.222-16.136 11.264-32.907 12.642-49.756 1.301-15.965 1.301-35.343 1.301-57.789v-413.172c0-22.447 0-41.813-1.301-57.775-1.378-16.845-4.42-33.604-12.642-49.737-12.271-24.085-31.863-43.678-55.949-55.949-16.132-8.222-32.892-11.264-49.737-12.642-15.957-1.301-35.328-1.301-57.775-1.301h-413.172c-22.447 0-41.824 0-57.789 1.301-16.849 1.378-33.62 4.42-49.756 12.642-24.109 12.284-43.669 31.889-55.929 55.949-8.225 16.145-11.268 32.917-12.647 49.783-1.306 15.979-1.305 35.379-1.304 57.869v412.89c-0.001 22.493-0.001 41.9 1.304 57.886 1.378 16.869 4.42 33.653 12.647 49.799 12.272 24.085 31.844 43.657 55.929 55.929 16.147 8.227 32.931 11.269 49.8 12.647 14.327 1.17 31.404 1.291 50.987 1.303v42.668c0 23.564 19.103 42.667 42.667 42.667zM254.626 745.646c-11.599-0.947-15.899-2.556-18.006-3.629-8.028-4.091-14.546-10.609-18.636-18.637-1.074-2.107-2.682-6.407-3.63-18.006-0.868-10.633-0.999-24.2-1.018-44.041h597.326c-0.017 19.87-0.145 33.445-1.015 44.081-0.947 11.576-2.551 15.866-3.622 17.966-4.079 8.004-10.607 14.534-18.658 18.637-2.112 1.076-6.409 2.682-17.993 3.629-12.087 0.988-27.964 1.021-52.565 1.021h-409.6c-24.599 0-40.488-0.033-52.582-1.021zM810.667 576h-597.333v-332.809c0-24.602 0.033-40.478 1.021-52.565 0.947-11.584 2.554-15.881 3.63-17.993 4.103-8.051 10.632-14.579 18.636-18.658 2.1-1.071 6.389-2.675 17.966-3.622 12.072-0.986 27.93-1.020 52.482-1.020h409.885c24.55 0 40.401 0.034 52.463 1.020 11.558 0.947 15.846 2.547 17.95 3.622 8.030 4.092 14.566 10.628 18.658 18.658 1.075 2.103 2.679 6.391 3.622 17.95 0.986 12.062 1.020 27.913 1.020 52.463v332.954zM512 512c23.565 0 42.667-19.102 42.667-42.667v-64h64c23.565 0 42.667-19.102 42.667-42.667s-19.102-42.667-42.667-42.667h-64v-64c0-23.565-19.102-42.667-42.667-42.667s-42.667 19.102-42.667 42.667v64h-64c-23.564 0-42.667 19.102-42.667 42.667s19.103 42.667 42.667 42.667h64v64c0 23.565 19.102 42.667 42.667 42.667z" />
<glyph unicode="&#xe94c;" glyph-name="Calendar_Check" d="M341.333 917.333c23.564 0 42.667-19.103 42.667-42.667v-42.667h256v42.667c0 23.564 19.102 42.667 42.667 42.667s42.667-19.103 42.667-42.667v-42.668c19.588-0.012 36.659-0.132 50.982-1.303 16.866-1.379 33.63-4.423 49.771-12.647 24.038-12.248 43.678-31.798 55.97-55.929 8.222-16.136 11.264-32.907 12.642-49.756 1.301-15.965 1.301-35.343 1.301-57.789v-413.172c0-22.447 0-41.813-1.301-57.775-1.378-16.845-4.42-33.604-12.642-49.737-12.279-24.107-31.906-43.691-55.97-55.949-16.132-8.222-32.892-11.264-49.737-12.642-15.957-1.301-35.328-1.301-57.775-1.301h-413.15c-22.447 0-41.824 0-57.789 1.301-16.849 1.378-33.62 4.42-49.756 12.642-24.109 12.284-43.669 31.889-55.929 55.949-8.225 16.145-11.268 32.917-12.647 49.783-1.306 15.979-1.305 35.379-1.304 57.869v412.89c-0.001 22.493-0.001 41.9 1.304 57.886 1.378 16.869 4.42 33.653 12.647 49.799 12.272 24.085 31.844 43.657 55.929 55.929 16.147 8.227 32.931 11.269 49.8 12.647 14.327 1.17 31.404 1.291 50.987 1.303v42.668c0 23.564 19.103 42.667 42.667 42.667zM254.626 745.646c-11.599-0.947-15.899-2.556-18.006-3.629-8.028-4.091-14.546-10.609-18.636-18.637-1.074-2.107-2.682-6.407-3.63-18.006-0.868-10.633-0.999-24.2-1.018-44.041h597.326c-0.017 19.87-0.145 33.445-1.015 44.081-0.947 11.576-2.551 15.866-3.622 17.966-4.066 7.982-10.603 14.522-18.679 18.637-2.112 1.077-6.409 2.683-17.984 3.63-12.079 0.987-27.951 1.021-52.553 1.021h-409.6c-24.599 0-40.488-0.033-52.582-1.021zM810.667 576h-597.333v-332.809c0-24.602 0.033-40.478 1.021-52.565 0.947-11.584 2.554-15.881 3.63-17.993 4.103-8.051 10.632-14.579 18.636-18.658 2.1-1.071 6.389-2.675 17.966-3.622 12.072-0.986 27.93-1.020 52.482-1.020h409.864c24.555 0 40.401 0.034 52.463 1.020 11.558 0.947 15.846 2.547 17.95 3.622 8.051 4.1 14.601 10.654 18.679 18.658 1.075 2.103 2.679 6.391 3.622 17.95 0.986 12.062 1.020 27.913 1.020 52.463v332.954zM670.17 478.17c16.661-16.661 16.661-43.678 0-60.339l-170.667-170.667c-16.661-16.661-43.678-16.661-60.339 0l-85.333 85.333c-16.663 16.661-16.663 43.678 0 60.339s43.677 16.661 60.34 0l55.163-55.164 140.497 140.497c16.661 16.661 43.678 16.661 60.339 0z" />
<glyph unicode="&#xe94d;" glyph-name="Calendar_Close" d="M341.333 917.333c23.564 0 42.667-19.103 42.667-42.667v-42.667h256v42.667c0 23.564 19.102 42.667 42.667 42.667s42.667-19.103 42.667-42.667v-42.668c19.588-0.012 36.663-0.132 50.991-1.303 16.866-1.379 33.638-4.422 49.783-12.647 24.060-12.259 43.665-31.82 55.949-55.929 8.222-16.136 11.264-32.907 12.642-49.756 1.301-15.965 1.301-35.343 1.301-57.789v-413.172c0-22.447 0-41.813-1.301-57.775-1.378-16.845-4.42-33.604-12.642-49.737-12.271-24.085-31.863-43.678-55.949-55.949-16.132-8.222-32.892-11.264-49.737-12.642-15.957-1.301-35.328-1.301-57.775-1.301h-413.172c-22.447 0-41.824 0-57.789 1.301-16.849 1.378-33.62 4.42-49.756 12.642-24.109 12.284-43.669 31.889-55.929 55.949-8.225 16.145-11.268 32.917-12.647 49.783-1.306 15.979-1.305 35.379-1.304 57.869v412.89c-0.001 22.493-0.001 41.9 1.304 57.886 1.378 16.869 4.42 33.653 12.647 49.799 12.272 24.085 31.844 43.657 55.929 55.929 16.147 8.227 32.931 11.269 49.8 12.647 14.327 1.17 31.404 1.291 50.987 1.303v42.668c0 23.564 19.103 42.667 42.667 42.667zM254.626 745.646c-11.599-0.947-15.899-2.556-18.006-3.629-8.028-4.091-14.546-10.609-18.636-18.637-1.074-2.107-2.682-6.407-3.63-18.006-0.868-10.633-0.999-24.2-1.018-44.041h597.326c-0.017 19.87-0.145 33.445-1.015 44.081-0.947 11.576-2.551 15.866-3.622 17.966-4.079 8.004-10.607 14.534-18.658 18.637-2.112 1.076-6.409 2.682-17.993 3.629-12.087 0.988-27.964 1.021-52.565 1.021h-409.6c-24.599 0-40.488-0.033-52.582-1.021zM810.667 576h-597.333v-332.809c0-24.602 0.033-40.478 1.021-52.565 0.947-11.584 2.554-15.881 3.63-17.993 4.103-8.051 10.632-14.579 18.636-18.658 2.1-1.071 6.389-2.675 17.966-3.622 12.072-0.986 27.93-1.020 52.482-1.020h409.885c24.55 0 40.401 0.034 52.463 1.020 11.558 0.947 15.846 2.547 17.95 3.622 8.030 4.092 14.566 10.628 18.658 18.658 1.075 2.103 2.679 6.391 3.622 17.95 0.986 12.062 1.020 27.913 1.020 52.463v332.954zM396.497 478.17c16.662 16.661 43.678 16.661 60.339 0l55.164-55.164 55.164 55.164c16.661 16.661 43.678 16.661 60.339 0s16.661-43.678 0-60.339l-55.164-55.164 55.164-55.164c16.661-16.661 16.661-43.678 0-60.339s-43.678-16.661-60.339 0l-55.164 55.164-55.164-55.164c-16.661-16.661-43.677-16.661-60.339 0s-16.663 43.678 0 60.339l55.164 55.164-55.164 55.164c-16.663 16.661-16.663 43.678 0 60.339z" />
<glyph unicode="&#xe94e;" glyph-name="Calendar_Days" d="M341.333 917.333c23.564 0 42.667-19.103 42.667-42.667v-42.667h256v42.667c0 23.564 19.102 42.667 42.667 42.667s42.667-19.103 42.667-42.667v-42.668c19.588-0.012 36.659-0.132 50.982-1.303 16.866-1.379 33.63-4.423 49.771-12.647 24.038-12.248 43.678-31.798 55.97-55.929 8.222-16.136 11.264-32.907 12.642-49.756 1.301-15.965 1.301-35.343 1.301-57.789v-413.172c0-22.447 0-41.813-1.301-57.775-1.378-16.845-4.42-33.604-12.642-49.737-12.279-24.107-31.906-43.691-55.97-55.949-16.132-8.222-32.892-11.264-49.737-12.642-15.957-1.301-35.328-1.301-57.775-1.301h-413.15c-22.447 0-41.824 0-57.789 1.301-16.849 1.378-33.62 4.42-49.756 12.642-24.109 12.284-43.669 31.889-55.929 55.949-8.225 16.145-11.268 32.917-12.647 49.783-1.306 15.979-1.305 35.379-1.304 57.869v412.89c-0.001 22.493-0.001 41.9 1.304 57.886 1.378 16.869 4.42 33.653 12.647 49.799 12.272 24.085 31.844 43.657 55.929 55.929 16.147 8.227 32.931 11.269 49.8 12.647 14.327 1.17 31.404 1.291 50.987 1.303v42.668c0 23.564 19.103 42.667 42.667 42.667zM254.626 745.646c-11.599-0.947-15.899-2.556-18.006-3.629-8.028-4.091-14.546-10.609-18.636-18.637-1.074-2.107-2.682-6.407-3.63-18.006-0.868-10.633-0.999-24.2-1.018-44.041h597.326c-0.017 19.87-0.145 33.445-1.015 44.081-0.947 11.576-2.551 15.866-3.622 17.966-4.066 7.982-10.603 14.522-18.679 18.637-2.112 1.077-6.409 2.683-17.984 3.63-12.079 0.987-27.951 1.021-52.553 1.021h-409.6c-24.599 0-40.488-0.033-52.582-1.021zM810.667 576h-597.333v-332.809c0-24.602 0.033-40.478 1.021-52.565 0.947-11.584 2.554-15.881 3.63-17.993 4.103-8.051 10.632-14.579 18.636-18.658 2.1-1.071 6.389-2.675 17.966-3.622 12.072-0.986 27.93-1.020 52.482-1.020h409.864c24.555 0 40.401 0.034 52.463 1.020 11.558 0.947 15.846 2.547 17.95 3.622 8.051 4.1 14.601 10.654 18.679 18.658 1.075 2.103 2.679 6.391 3.622 17.95 0.986 12.062 1.020 27.913 1.020 52.463v332.954zM298.667 448c0 23.565 19.103 42.667 42.667 42.667h0.085c11.489 0 22.492-4.634 30.52-12.851s12.403-19.328 12.135-30.814l-0.002-0.085c-0.265-11.315-5.015-22.063-13.207-29.875s-19.152-12.053-30.469-11.78h-0.084c-23.16 0.555-41.646 19.49-41.646 42.654v0.085zM469.333 448c0 23.565 19.102 42.667 42.667 42.667h0.085c11.49 0 22.494-4.634 30.519-12.851 8.030-8.218 12.403-19.328 12.134-30.814v-0.085c-0.265-11.315-5.018-22.063-13.21-29.875-8.188-7.812-19.149-12.053-30.468-11.78h-0.081c-23.159 0.555-41.647 19.49-41.647 42.654v0.085zM640 448c0 23.565 19.102 42.667 42.667 42.667h0.085c23.561 0 42.667-19.102 42.667-42.667v-0.085c0-11.494-4.638-22.498-12.86-30.528-8.226-8.030-19.341-12.403-30.831-12.126h-0.081c-23.159 0.555-41.647 19.49-41.647 42.654v0.085zM298.667 277.333c0 23.565 19.103 42.667 42.667 42.667h0.085c11.489 0 22.492-4.634 30.52-12.851s12.403-19.328 12.135-30.814l-0.002-0.085c-0.265-11.315-5.015-22.063-13.207-29.875s-19.152-12.053-30.469-11.78h-0.084c-23.16 0.555-41.646 19.49-41.646 42.654v0.085zM469.333 277.333c0 23.565 19.102 42.667 42.667 42.667h0.085c11.49 0 22.494-4.634 30.519-12.851 8.030-8.218 12.403-19.328 12.134-30.814v-0.085c-0.265-11.315-5.018-22.063-13.21-29.875-8.188-7.812-19.149-12.053-30.468-11.78h-0.081c-23.159 0.555-41.647 19.49-41.647 42.654v0.085zM640 277.333c0 23.565 19.102 42.667 42.667 42.667h0.085c11.49 0 22.494-4.634 30.519-12.851 8.030-8.218 12.403-19.328 12.134-30.814v-0.085c-0.265-11.315-5.018-22.063-13.21-29.875-8.188-7.812-19.149-12.053-30.468-11.78h-0.081c-23.159 0.555-41.647 19.49-41.647 42.654v0.085z" />
<glyph unicode="&#xe94f;" glyph-name="Calendar_Event" d="M341.333 917.333c23.564 0 42.667-19.103 42.667-42.667v-42.667h256v42.667c0 23.564 19.102 42.667 42.667 42.667s42.667-19.103 42.667-42.667v-42.668c19.588-0.012 36.659-0.132 50.982-1.303 16.866-1.379 33.63-4.423 49.771-12.647 24.038-12.248 43.678-31.798 55.97-55.929 8.222-16.136 11.264-32.907 12.642-49.756 1.301-15.965 1.301-35.343 1.301-57.789v-413.172c0-22.447 0-41.813-1.301-57.775-1.378-16.845-4.42-33.604-12.642-49.737-12.279-24.107-31.906-43.691-55.97-55.949-16.132-8.222-32.892-11.264-49.737-12.642-15.957-1.301-35.328-1.301-57.775-1.301h-413.15c-22.447 0-41.824 0-57.789 1.301-16.849 1.378-33.62 4.42-49.756 12.642-24.109 12.284-43.669 31.889-55.929 55.949-8.225 16.145-11.268 32.917-12.647 49.783-1.306 15.979-1.305 35.379-1.304 57.869v412.89c-0.001 22.493-0.001 41.9 1.304 57.886 1.378 16.869 4.42 33.653 12.647 49.799 12.272 24.085 31.844 43.657 55.929 55.929 16.147 8.227 32.931 11.269 49.8 12.647 14.327 1.17 31.404 1.291 50.987 1.303v42.668c0 23.564 19.103 42.667 42.667 42.667zM254.626 745.646c-11.599-0.947-15.899-2.556-18.006-3.629-8.028-4.091-14.546-10.609-18.636-18.637-1.074-2.107-2.682-6.407-3.63-18.006-0.868-10.633-0.999-24.2-1.018-44.041h597.326c-0.017 19.87-0.145 33.445-1.015 44.081-0.947 11.576-2.551 15.866-3.622 17.966-4.066 7.982-10.603 14.522-18.679 18.637-2.112 1.077-6.409 2.683-17.984 3.63-12.079 0.987-27.951 1.021-52.553 1.021h-409.6c-24.599 0-40.488-0.033-52.582-1.021zM810.667 576h-597.333v-332.809c0-24.602 0.033-40.478 1.021-52.565 0.947-11.584 2.554-15.881 3.63-17.993 4.103-8.051 10.632-14.579 18.636-18.658 2.1-1.071 6.389-2.675 17.966-3.622 12.072-0.986 27.93-1.020 52.482-1.020h409.864c24.555 0 40.401 0.034 52.463 1.020 11.558 0.947 15.846 2.547 17.95 3.622 8.051 4.1 14.601 10.654 18.679 18.658 1.075 2.103 2.679 6.391 3.622 17.95 0.986 12.062 1.020 27.913 1.020 52.463v332.954zM298.667 437.333c0 29.457 23.878 53.333 53.333 53.333h149.333c29.457 0 53.333-23.876 53.333-53.333v-149.333c0-29.457-23.876-53.333-53.333-53.333h-149.333c-29.455 0-53.333 23.876-53.333 53.333v149.333zM384 405.333v-85.333h85.333v85.333h-85.333z" />
<glyph unicode="&#xe950;" glyph-name="Calendar_Remove" d="M341.333 917.333c23.564 0 42.667-19.103 42.667-42.667v-42.667h256v42.667c0 23.564 19.102 42.667 42.667 42.667s42.667-19.103 42.667-42.667v-42.668c19.588-0.012 36.659-0.132 50.982-1.303 16.866-1.379 33.63-4.423 49.771-12.647 24.038-12.248 43.678-31.798 55.97-55.929 8.222-16.136 11.264-32.907 12.642-49.756 1.301-15.965 1.301-35.343 1.301-57.789v-413.172c0-22.447 0-41.813-1.301-57.775-1.378-16.845-4.42-33.604-12.642-49.737-12.279-24.107-31.906-43.691-55.97-55.949-16.132-8.222-32.892-11.264-49.737-12.642-15.957-1.301-35.328-1.301-57.775-1.301h-413.15c-22.447 0-41.824 0-57.789 1.301-16.849 1.378-33.62 4.42-49.756 12.642-24.109 12.284-43.669 31.889-55.929 55.949-8.225 16.145-11.268 32.917-12.647 49.783-1.306 15.979-1.305 35.379-1.304 57.869v412.89c-0.001 22.493-0.001 41.9 1.304 57.886 1.378 16.869 4.42 33.653 12.647 49.799 12.272 24.085 31.844 43.657 55.929 55.929 16.147 8.227 32.931 11.269 49.8 12.647 14.327 1.17 31.404 1.291 50.987 1.303v42.668c0 23.564 19.103 42.667 42.667 42.667zM254.626 745.646c-11.599-0.947-15.899-2.556-18.006-3.629-8.028-4.091-14.546-10.609-18.636-18.637-1.074-2.107-2.682-6.407-3.63-18.006-0.868-10.633-0.999-24.2-1.018-44.041h597.326c-0.017 19.87-0.145 33.445-1.015 44.081-0.947 11.576-2.551 15.866-3.622 17.966-4.066 7.982-10.603 14.522-18.679 18.637-2.112 1.077-6.409 2.683-17.984 3.63-12.079 0.987-27.951 1.021-52.553 1.021h-409.6c-24.599 0-40.488-0.033-52.582-1.021zM810.667 576h-597.333v-332.809c0-24.602 0.033-40.478 1.021-52.565 0.947-11.584 2.554-15.881 3.63-17.993 4.103-8.051 10.632-14.579 18.636-18.658 2.1-1.071 6.389-2.675 17.966-3.622 12.072-0.986 27.93-1.020 52.482-1.020h409.864c24.555 0 40.401 0.034 52.463 1.020 11.558 0.947 15.846 2.547 17.95 3.622 8.051 4.1 14.601 10.654 18.679 18.658 1.075 2.103 2.679 6.391 3.622 17.95 0.986 12.062 1.020 27.913 1.020 52.463v332.954zM362.667 362.667c0 23.565 19.103 42.667 42.667 42.667h213.333c23.565 0 42.667-19.102 42.667-42.667s-19.102-42.667-42.667-42.667h-213.333c-23.564 0-42.667 19.102-42.667 42.667z" />
<glyph unicode="&#xe951;" glyph-name="Calendar_Week" d="M341.333 917.333c23.564 0 42.667-19.103 42.667-42.667v-42.667h256v42.667c0 23.564 19.102 42.667 42.667 42.667s42.667-19.103 42.667-42.667v-42.668c19.588-0.012 36.659-0.132 50.982-1.303 16.866-1.379 33.63-4.423 49.771-12.647 24.038-12.248 43.678-31.798 55.97-55.929 8.222-16.136 11.264-32.907 12.642-49.756 1.301-15.965 1.301-35.343 1.301-57.789v-413.172c0-22.447 0-41.813-1.301-57.775-1.378-16.845-4.42-33.604-12.642-49.737-12.279-24.107-31.906-43.691-55.97-55.949-16.132-8.222-32.892-11.264-49.737-12.642-15.957-1.301-35.328-1.301-57.775-1.301h-413.15c-22.447 0-41.824 0-57.789 1.301-16.849 1.378-33.62 4.42-49.756 12.642-24.109 12.284-43.669 31.889-55.929 55.949-8.225 16.145-11.268 32.917-12.647 49.783-1.306 15.979-1.305 35.379-1.304 57.869v412.89c-0.001 22.493-0.001 41.9 1.304 57.886 1.378 16.869 4.42 33.653 12.647 49.799 12.272 24.085 31.844 43.657 55.929 55.929 16.147 8.227 32.931 11.269 49.8 12.647 14.327 1.17 31.404 1.291 50.987 1.303v42.668c0 23.564 19.103 42.667 42.667 42.667zM254.626 745.646c-11.599-0.947-15.899-2.556-18.006-3.629-8.028-4.091-14.546-10.609-18.636-18.637-1.074-2.107-2.682-6.407-3.63-18.006-0.868-10.633-0.999-24.2-1.018-44.041h597.326c-0.017 19.87-0.145 33.445-1.015 44.081-0.947 11.576-2.551 15.866-3.622 17.966-4.066 7.982-10.603 14.522-18.679 18.637-2.112 1.077-6.409 2.683-17.984 3.63-12.079 0.987-27.951 1.021-52.553 1.021h-409.6c-24.599 0-40.488-0.033-52.582-1.021zM810.667 576h-597.333v-332.809c0-24.602 0.033-40.478 1.021-52.565 0.947-11.584 2.554-15.881 3.63-17.993 4.103-8.051 10.632-14.579 18.636-18.658 2.1-1.071 6.389-2.675 17.966-3.622 12.072-0.986 27.93-1.020 52.482-1.020h409.864c24.555 0 40.401 0.034 52.463 1.020 11.558 0.947 15.846 2.547 17.95 3.622 8.051 4.1 14.601 10.654 18.679 18.658 1.075 2.103 2.679 6.391 3.622 17.95 0.986 12.062 1.020 27.913 1.020 52.463v332.954zM298.667 448c0 23.565 19.103 42.667 42.667 42.667h341.333c23.565 0 42.667-19.102 42.667-42.667s-19.102-42.667-42.667-42.667h-341.333c-23.564 0-42.667 19.102-42.667 42.667z" />
<glyph unicode="&#xe952;" glyph-name="Camera" d="M451.537 832c0.401 0 0.806 0 1.212 0h118.498c0.41 0 0.815 0 1.216 0 5.717 0.002 10.705 0.003 15.45-0.346 48.098-3.546 90.133-33.82 108.715-78.347 1.856-4.45 3.439-9.207 5.303-14.798l0.299-0.892c0.141-0.434 0.29-0.879 0.444-1.332 1.481-4.426 3.238-9.676 4.258-14.461 1.28-5.989 1.899-11.955 1.903-17.825h52.288c22.49 0.001 41.886 0.001 57.86-1.304 16.866-1.379 33.63-4.423 49.771-12.647 24.038-12.248 43.678-31.798 55.97-55.929 8.222-16.136 11.264-32.907 12.642-49.756 1.301-15.965 1.301-35.342 1.301-57.789v-242.483c0-22.447 0-41.818-1.301-57.775-1.378-16.849-4.42-33.604-12.642-49.737-12.271-24.085-31.885-43.699-55.97-55.97-16.132-8.222-32.892-11.264-49.737-12.642-15.957-1.301-35.328-1.301-57.775-1.301h-498.484c-22.447 0-41.824 0-57.789 1.301-16.849 1.378-33.62 4.42-49.756 12.642-24.131 12.292-43.68 31.932-55.929 55.97-8.224 16.141-11.268 32.905-12.646 49.771-1.306 15.974-1.306 35.371-1.305 57.86v242.223c-0.001 22.493-0.001 41.9 1.304 57.886 1.378 16.869 4.42 33.653 12.647 49.8 12.272 24.085 31.844 43.657 55.929 55.929 16.147 8.227 32.931 11.269 49.8 12.647 15.985 1.306 35.393 1.305 57.885 1.304h52.265c0.007 5.871 0.623 11.837 1.902 17.829zM404.881 704h214.229c0.004 0-0.004 0 0 0 2.146 0.001 3.439 0.008 4.326 0.026-0.034 0.111-0.073 0.238-0.115 0.384-0.418 1.321-1.015 3.118-2.048 6.223-2.385 7.16-2.935 8.698-3.401 9.811-6.187 14.831-20.19 24.925-36.237 26.108-1.186 0.087-2.773 0.116-10.389 0.116h-118.498c-7.612 0-9.173-0.028-10.364-0.116-16.062-1.184-30.083-11.293-36.265-26.108-0.458-1.099-0.985-2.59-3.393-9.815l-0.066-0.197-0.017-0.047c-1.008-3.023-1.586-4.762-1.987-6.043-0.037-0.118-0.070-0.223-0.098-0.316 0.879-0.018 2.165-0.025 4.322-0.026zM264.542 618.666c-24.599 0-40.488-0.033-52.582-1.021-11.599-0.947-15.899-2.556-18.006-3.629-8.028-4.091-14.546-10.609-18.636-18.637-1.074-2.107-2.682-6.407-3.63-18.006-0.988-12.094-1.021-27.983-1.021-52.582v-238.933c0-24.602 0.033-40.474 1.021-52.553 0.946-11.575 2.552-15.872 3.63-17.984 4.114-8.077 10.654-14.613 18.636-18.679 2.1-1.071 6.389-2.675 17.966-3.622 12.072-0.986 27.93-1.020 52.482-1.020h495.197c24.555 0 40.401 0.034 52.463 1.020 11.558 0.943 15.846 2.547 17.95 3.622 8.030 4.087 14.588 10.65 18.679 18.679 1.075 2.103 2.679 6.387 3.622 17.95 0.986 12.062 1.020 27.908 1.020 52.463v239.198c0 24.552-0.034 40.409-1.020 52.481-0.947 11.576-2.551 15.866-3.622 17.966-4.066 7.982-10.603 14.522-18.679 18.637-2.112 1.077-6.409 2.683-17.984 3.63-12.079 0.987-27.951 1.021-52.553 1.021h-494.933zM451.537 832c-5.722 0.002-10.679 0.003-15.424-0.346zM436.113 831.653c-48.081-3.545-90.155-33.803-108.744-78.347zM327.369 753.306c-1.833-4.392-3.405-9.114-5.213-14.541zM322.157 738.765c-0.127-0.381-0.255-0.765-0.384-1.152zM321.773 737.613l-0.016-0.046-0.066-0.197c-0.14-0.421-0.285-0.852-0.433-1.294-1.44-4.302-3.179-9.496-4.193-14.248zM512 490.667c-47.13 0-85.333-38.204-85.333-85.333s38.204-85.333 85.333-85.333c47.13 0 85.333 38.204 85.333 85.333s-38.204 85.333-85.333 85.333zM341.333 405.333c0 94.255 76.41 170.666 170.667 170.666 94.255 0 170.667-76.411 170.667-170.666 0-94.259-76.412-170.667-170.667-170.667-94.257 0-170.667 76.407-170.667 170.667z" />
<glyph unicode="&#xe953;" glyph-name="Car_Auto" d="M698.581 701.475c-5.329 1.92-12.378 2.525-47.761 2.525h-277.654c-35.381 0-42.419-0.606-47.747-2.525-6.193-2.231-11.776-5.859-16.334-10.617-3.921-4.092-7.342-10.285-21.705-42.603l-51.076-114.921h551.366l-51.102 114.98c-14.349 32.289-17.758 38.461-21.666 42.544-4.574 4.773-10.146 8.393-16.32 10.617zM810.667 448h-597.333v-170.667l597.333-0.004v170.671zM128 448c-23.564 0-42.667 19.102-42.667 42.667s19.103 42.667 42.667 42.667h14.921c0.168 0.377 0.337 0.756 0.506 1.137l65.974 148.441c0.754 1.696 1.499 3.38 2.239 5.049 10.755 24.288 20.204 45.624 35.828 61.931 13.667 14.264 30.438 25.167 49.030 31.865 21.234 7.65 44.562 7.617 71.088 7.581 1.845-0.003 3.705-0.005 5.581-0.005h277.654c1.873 0 3.733 0.003 5.581 0.005 26.526 0.036 49.869 0.069 71.104-7.581 18.611-6.705 35.358-17.615 49.011-31.865 15.607-16.29 25.045-37.605 35.772-61.827 0.747-1.684 1.498-3.383 2.257-5.094l66.24-149.039c0.090-0.2 0.179-0.399 0.269-0.598h14.946c23.565 0 42.667-19.102 42.667-42.667s-19.102-42.667-42.667-42.667v-255.996c0-70.69-57.306-128.004-128-128.004-70.69 0-128 57.306-128 127.996l-256 0.004c0-70.69-57.308-128-128-128s-128 57.31-128 128v256zM298.667 192h-85.333c0-23.565 19.103-42.667 42.667-42.667s42.667 19.102 42.667 42.667zM725.333 191.996c0-23.561 19.102-42.662 42.667-42.662 23.556 0 42.662 19.098 42.667 42.662h-85.333z" />
<glyph unicode="&#xe954;" glyph-name="Caret_Circle_Down" d="M85.333 448c0 235.642 191.025 426.667 426.667 426.667 235.639 0 426.667-191.025 426.667-426.667 0-235.639-191.027-426.667-426.667-426.667-235.642 0-426.667 191.027-426.667 426.667zM512 789.333c-188.513 0-341.333-152.82-341.333-341.333s152.82-341.333 341.333-341.333c188.514 0 341.333 152.819 341.333 341.333s-152.819 341.333-341.333 341.333zM353.83 520.836c16.663 16.663 43.677 16.663 60.34 0l97.83-97.83 97.83 97.83c16.661 16.663 43.678 16.663 60.339 0 16.661-16.661 16.661-43.678 0-60.339l-128-128c-16.661-16.661-43.678-16.661-60.339 0l-128 128c-16.662 16.661-16.662 43.678 0 60.339z" />
<glyph unicode="&#xe955;" glyph-name="Caret_Circle_Left" d="M85.333 448c0 235.642 191.025 426.667 426.667 426.667 235.639 0 426.667-191.025 426.667-426.667 0-235.639-191.027-426.667-426.667-426.667-235.642 0-426.667 191.027-426.667 426.667zM512 789.333c-188.513 0-341.333-152.82-341.333-341.333s152.82-341.333 341.333-341.333c188.514 0 341.333 152.819 341.333 341.333s-152.819 341.333-341.333 341.333zM584.836 606.17c16.661-16.663 16.661-43.677 0-60.34l-97.83-97.83 97.83-97.83c16.661-16.661 16.661-43.678 0-60.339s-43.678-16.661-60.339 0l-128 128c-16.662 16.661-16.662 43.678 0 60.339l128 128c16.661 16.662 43.678 16.662 60.339 0z" />
<glyph unicode="&#xe956;" glyph-name="Caret_Circle_Right" d="M85.333 448c0 235.642 191.025 426.667 426.667 426.667 235.639 0 426.667-191.025 426.667-426.667 0-235.639-191.027-426.667-426.667-426.667-235.642 0-426.667 191.027-426.667 426.667zM512 789.333c-188.513 0-341.333-152.82-341.333-341.333s152.82-341.333 341.333-341.333c188.514 0 341.333 152.819 341.333 341.333s-152.819 341.333-341.333 341.333zM439.164 606.17c16.661 16.662 43.678 16.662 60.339 0l128-128c16.661-16.661 16.661-43.678 0-60.339l-128-128c-16.661-16.661-43.678-16.661-60.339 0-16.663 16.661-16.663 43.678 0 60.339l97.83 97.83-97.83 97.83c-16.663 16.663-16.663 43.677 0 60.34z" />
</font>
</defs>
</svg>
